<svg width="788" height="286" viewBox="0 0 788 286" fill="none" xmlns="http://www.w3.org/2000/svg">
<g filter="url(#filter0_d_81_8681)">
<path d="M82.0625 160.312C82.0625 158.188 82.4583 156.042 83.25 153.875C84.0417 151.708 85.2708 149.667 86.9375 147.75C93.0208 150.417 98.3125 152.458 102.812 153.875C107.354 155.292 112.021 156 116.812 156C117.688 156 118.583 155.917 119.5 155.75C120.458 155.583 121.208 155.354 121.75 155.062C121.958 154.604 122.125 154.021 122.25 153.312C122.375 152.562 122.438 151.958 122.438 151.5C122.438 149.458 121.458 147.708 119.5 146.25C117.542 144.792 114.958 143.333 111.75 141.875L109.562 140.812C103.312 137.604 98.2917 134.729 94.5 132.188C90.75 129.604 87.5625 126.229 84.9375 122.062C82.3542 117.854 81.0625 112.708 81.0625 106.625C81.0625 97.7083 83.5417 90.5625 88.5 85.1875C93.5 79.8125 101.438 77.125 112.312 77.125C121.604 77.125 128.958 77.6875 134.375 78.8125C136.625 80.1458 138.583 81.5417 140.25 83C141.958 84.4167 143.583 86.1458 145.125 88.1875C145.125 91.1042 144.833 94.2708 144.25 97.6875C143.708 101.062 142.938 104.167 141.938 107C140.979 109.833 139.938 111.875 138.812 113.125C137.854 113.583 136.792 113.938 135.625 114.188C134.458 114.396 133.021 114.5 131.312 114.5C129.521 114.5 128.062 114.375 126.938 114.125C125.812 113.875 124.771 113.458 123.812 112.875L121.875 99.875C119.458 99.2083 116.896 98.7292 114.188 98.4375C111.479 98.1042 109.646 97.9583 108.688 98C107.146 98.7083 106.083 99.7083 105.5 101C104.958 102.25 104.688 103.75 104.688 105.5C104.688 107.375 105.188 109 106.188 110.375C107.229 111.708 108.479 112.812 109.938 113.688C111.396 114.562 113.271 115.542 115.562 116.625L118.312 118C124.271 121.125 128.958 123.854 132.375 126.188C135.792 128.521 138.646 131.479 140.938 135.062C143.271 138.604 144.438 142.896 144.438 147.938C144.438 153.812 142.896 158.875 139.812 163.125C136.729 167.333 132.771 170.375 127.938 172.25C125.312 173.292 122.417 174.042 119.25 174.5C116.083 174.958 112.417 175.188 108.25 175.188C105.417 175.188 102.375 174.833 99.125 174.125C95.875 173.417 92.7083 172.167 89.625 170.375C86.5833 168.583 84.1458 166.188 82.3125 163.188C82.1458 162.396 82.0625 161.438 82.0625 160.312ZM151.562 120.125C150.854 117.083 150.396 114.854 150.188 113.438C149.979 112.021 149.875 109.875 149.875 107C152.333 104.667 154.979 102.917 157.812 101.75C160.646 100.542 163.833 99.9375 167.375 99.9375C178.125 99.9375 183.5 105.333 183.5 116.125C183.5 119 183.229 122.333 182.688 126.125C182.188 129.917 181.458 134.688 180.5 140.438C180.375 141.188 180.042 143.208 179.5 146.5C178.958 149.792 178.583 152.542 178.375 154.75C179.083 155.5 179.958 156.021 181 156.312C181.5 156.312 182.646 155.292 184.438 153.25C186.271 151.167 188.229 148.646 190.312 145.688C192.396 142.729 194.104 140 195.438 137.5C195.771 131.542 196.229 126.062 196.812 121.062L190.25 119.75C189.708 117.667 189.333 115.833 189.125 114.25C188.917 112.667 188.812 110.979 188.812 109.188L188.875 107.438C190.375 105.521 192.625 103.792 195.625 102.25C198.625 100.708 202.062 99.9375 205.938 99.9375C216.688 99.9375 222.062 105.333 222.062 116.125C222.062 120.5 221.333 126.271 219.875 133.438C218.417 140.562 216.708 147.771 214.75 155.062L221.938 151.938C223.146 153.229 224.208 154.812 225.125 156.688C226.083 158.521 226.688 160.646 226.938 163.062C226.354 164.312 225.083 165.917 223.125 167.875C221.167 169.792 218.771 171.5 215.938 173C213.104 174.5 210.146 175.25 207.062 175.25C203.604 175.25 200.938 174.229 199.062 172.188C197.229 170.104 196.312 167.458 196.312 164.25C196.312 163.417 196.521 161.708 196.938 159.125C197.396 156.542 197.771 154.75 198.062 153.75L196.312 153.188C194.229 160.479 191.354 165.979 187.688 169.688C184.062 173.396 179.917 175.25 175.25 175.25C168.542 175.25 163.812 173.042 161.062 168.625C158.312 164.167 156.938 158.646 156.938 152.062C156.938 139.688 157.354 129.354 158.188 121.062L151.562 120.125ZM231 120.375C230.125 117.667 229.542 115.25 229.25 113.125C229 111 228.875 108.25 228.875 104.875C229.542 104.292 230.625 103.625 232.125 102.875C233.625 102.083 235.417 101.396 237.5 100.812C239.583 100.229 241.729 99.9375 243.938 99.9375C248.979 99.9375 252.542 101.021 254.625 103.188C256.75 105.354 257.812 108.604 257.812 112.938C257.812 115.354 257.458 118.625 256.75 122.75C255.583 129.375 255 132.854 255 133.188C255 133.396 255.146 133.604 255.438 133.812C255.729 133.979 256.042 134.062 256.375 134.062C256.75 134.062 257 133.917 257.125 133.625L257.75 131.125L259.125 125.812C261.167 118.104 264.208 111.875 268.25 107.125C272.292 102.333 277.375 99.9375 283.5 99.9375C288.083 99.9375 291.812 100.938 294.688 102.938C297.604 104.896 299.708 107.5 301 110.75C302.292 113.958 302.938 117.5 302.938 121.375C302.938 126.625 302.438 132.521 301.438 139.062C300.438 145.562 299.104 151.646 297.438 157.312C295.812 162.854 293.104 167.25 289.312 170.5C285.562 173.708 280.875 175.312 275.25 175.312C273.208 175.312 270.812 174.979 268.062 174.312C265.354 173.688 261.917 172.583 257.75 171L255.25 182.812L255.375 182.938L267.312 182.125C268.104 183.25 268.688 184.604 269.062 186.188C269.479 187.812 269.833 189.667 270.125 191.75L270.312 193C270.312 193.167 269.396 193.938 267.562 195.312C265.729 196.729 263.292 198.021 260.25 199.188C257.208 200.396 253.708 201 249.75 201C240.792 201 236.312 196.229 236.312 186.688V182.375C236.312 169.667 236.396 158.354 236.562 148.438C236.771 138.479 237.188 129.5 237.812 121.5L231 120.375ZM275 158.625C276.5 153 277.25 144.479 277.25 133.062C277.25 131.104 277.146 129.521 276.938 128.312C275.979 127.104 274.604 126.5 272.812 126.5C272.229 127 270.229 130.292 266.812 136.375C263.396 142.417 260.875 147.062 259.25 150.312V153.312C261.542 154.896 264.188 156.208 267.188 157.25C270.188 158.25 272.479 158.75 274.062 158.75C274.438 158.75 274.75 158.708 275 158.625ZM310.25 137.688C310.25 130.479 311.458 124.042 313.875 118.375C316.292 112.708 320.021 108.229 325.062 104.938C330.146 101.604 336.479 99.9375 344.062 99.9375C348.021 99.9375 351.979 100.417 355.938 101.375C359.896 102.292 363.25 103.833 366 106C368.542 108.042 370.375 110.75 371.5 114.125C372.667 117.458 373.25 121.167 373.25 125.25C373.25 127.958 373.021 130.729 372.562 133.562C372.062 134.396 371.083 135.5 369.625 136.875C368.167 138.208 366.458 139.521 364.5 140.812C362.542 142.104 360.646 143.104 358.812 143.812C357.062 143.938 355.25 144 353.375 144C350.083 144 346.75 143.854 343.375 143.562C340 143.271 337.042 142.938 334.5 142.562C334.833 146.104 335.917 149.188 337.75 151.812C339.583 154.438 342.5 155.75 346.5 155.75C346.875 155.75 347.479 155.708 348.312 155.625C350.854 155.375 353.812 154.708 357.188 153.625C360.604 152.5 364 151.208 367.375 149.75C368.958 151.333 370.125 152.917 370.875 154.5C371.625 156.083 372.146 158.354 372.438 161.312C371.146 162.812 369.042 164.646 366.125 166.812C363.25 168.979 359.729 170.938 355.562 172.688C351.396 174.396 347.042 175.25 342.5 175.25C335.667 175.25 329.812 173.604 324.938 170.312C320.104 166.979 316.438 162.479 313.938 156.812C311.479 151.104 310.25 144.729 310.25 137.688ZM350.5 123.312C349.917 122.688 348.938 122.208 347.562 121.875C346.188 121.5 344.75 121.312 343.25 121.312C342.042 121.312 340.812 121.417 339.562 121.625C338.354 121.833 337.625 122.062 337.375 122.312C335.958 125.104 335.062 128.271 334.688 131.812L351.375 130.188L350.5 123.312ZM387.875 157.25C387.875 155.458 387.917 151.062 388 144.062C388.125 130.312 388.188 122.792 388.188 121.5L382.438 120.562C381.646 118.188 381.083 115.958 380.75 113.875C380.417 111.792 380.25 109.688 380.25 107.562C380.25 106.688 380.271 106.021 380.312 105.562C381.021 104.938 382.125 104.188 383.625 103.312C385.125 102.438 386.896 101.667 388.938 101C390.979 100.292 393.062 99.9375 395.188 99.9375C400.146 99.9375 403.729 101.042 405.938 103.25C408.188 105.458 409.312 108.688 409.312 112.938C409.312 115.521 408.979 118.833 408.312 122.875C407.688 126.875 407.042 129.729 406.375 131.438L408.625 131.812L412.375 117.688C414.042 111.312 416.125 106.771 418.625 104.062C421.125 101.312 423.938 99.9375 427.062 99.9375C429.104 99.9375 431.125 100.25 433.125 100.875C435.167 101.5 436.729 102.271 437.812 103.188C438.979 105.771 439.562 109.208 439.562 113.5C439.562 116.5 439.271 119.479 438.688 122.438C438.104 125.354 437.354 127.708 436.438 129.5L423.312 127.75C420.646 130.583 417.812 134.521 414.812 139.562C411.812 144.562 409.417 149.167 407.625 153.375L407.562 156.625L419.688 153.75C421.729 156.875 422.917 160.583 423.25 164.875C423.25 165.125 422.312 166.146 420.438 167.938C418.562 169.729 416.083 171.396 413 172.938C409.958 174.438 406.458 175.188 402.5 175.188C398.417 175.188 395 174.104 392.25 171.938C389.542 169.729 388.104 166.021 387.938 160.812C387.896 160.188 387.875 159 387.875 157.25ZM450.875 127.75C450.875 115.167 451.062 105.5 451.438 98.75H451.375L442.438 97.4375C441.896 95.8958 441.479 94.1875 441.188 92.3125C440.896 90.4375 440.75 88.625 440.75 86.875C440.75 85.5417 440.854 84.0833 441.062 82.5C446.188 80.6667 453.25 79.3125 462.25 78.4375C471.25 77.5625 479.917 77.125 488.25 77.125C494.625 77.125 500.104 77.625 504.688 78.625C509.271 79.625 513.104 81.8958 516.188 85.4375C519.312 88.9375 520.875 94.1875 520.875 101.188C520.875 104.688 520.125 108.771 518.625 113.438C517.167 118.062 515.292 122.583 513 127C510.75 131.375 508.479 134.917 506.188 137.625C502.812 141.667 499.062 144.042 494.938 144.75C488.104 145.833 480.875 146.375 473.25 146.375C473.083 150.667 473.021 153.75 473.062 155.625L482.375 155C484.292 158.125 485.354 161.833 485.562 166.125C485.562 166.333 484.625 167.229 482.75 168.812C480.875 170.396 478.396 171.854 475.312 173.188C472.271 174.521 468.771 175.188 464.812 175.188C460.896 175.188 457.771 174.125 455.438 172C453.146 169.833 452 166.104 452 160.812C451.292 152.146 450.938 141.146 450.938 127.812L450.875 127.75ZM490.438 128.812C491.521 124.229 492.417 119.375 493.125 114.25C493.875 109.083 494.292 104.583 494.375 100.75C494.167 100.375 493.104 100.042 491.188 99.75C489.271 99.4583 486.792 99.3125 483.75 99.3125C481.625 99.3125 478.979 99.3958 475.812 99.5625C475.438 112.146 474.938 122.25 474.312 129.875L490.438 128.812ZM525.375 137.062C525.375 129.521 526.583 122.979 529 117.438C531.417 111.896 535.125 107.604 540.125 104.562C545.125 101.479 551.396 99.9375 558.938 99.9375C567.271 99.9375 573.812 101.5 578.562 104.625C583.312 107.708 586.625 112 588.5 117.5C590.417 123 591.375 129.729 591.375 137.688C591.375 144.896 590.104 151.333 587.562 157C585.062 162.625 581.271 167.083 576.188 170.375C571.146 173.625 564.958 175.25 557.625 175.25C546.292 175.25 538.083 171.771 533 164.812C527.917 157.812 525.375 148.562 525.375 137.062ZM560.188 156.938C562.312 156.938 563.604 156.771 564.062 156.438C565.021 154.771 565.75 152.417 566.25 149.375C566.75 146.333 567 143.042 567 139.5C567 136.25 566.792 133.208 566.375 130.375C565.958 127.5 565.375 125.25 564.625 123.625C564.167 123.083 563.25 122.688 561.875 122.438C560.5 122.146 559 122 557.375 122C555.25 122 553.792 122.229 553 122.688C550.917 126.271 549.875 131.25 549.875 137.625C549.875 140.625 550.104 143.688 550.562 146.812C551.021 149.938 551.604 152.771 552.312 155.312C552.812 155.854 553.833 156.271 555.375 156.562C556.917 156.812 558.521 156.938 560.188 156.938ZM605.75 151.938C609.417 153.396 612.354 154.521 614.562 155.312C616.771 156.104 619.188 156.792 621.812 157.375C624.479 157.958 627.125 158.25 629.75 158.25C630.917 158.25 631.75 158.146 632.25 157.938C632.375 157.771 632.479 157.521 632.562 157.188C632.688 156.812 632.75 156.438 632.75 156.062C632.75 155.229 632.271 154.542 631.312 154C629.812 153.167 627.146 151.854 623.312 150.062C618.062 147.562 613.896 145.333 610.812 143.375C607.771 141.417 605.188 138.812 603.062 135.562C600.979 132.312 599.938 128.229 599.938 123.312C599.938 116.271 602.042 110.625 606.25 106.375C610.458 102.083 617.125 99.9375 626.25 99.9375C637.125 99.9375 645.583 101.354 651.625 104.188C651.917 105.396 652.062 106.917 652.062 108.75C652.062 112.25 651.521 115.833 650.438 119.5C649.354 123.125 647.938 125.812 646.188 127.562C643.812 126.771 640.458 125.5 636.125 123.75C632.958 122.5 630.438 121.542 628.562 120.875C626.729 120.167 625.042 119.667 623.5 119.375C622.667 119.583 622 120.083 621.5 120.875C621 121.625 620.75 122.521 620.75 123.562C620.75 124.479 621.021 125.25 621.562 125.875C622.104 126.5 622.708 127 623.375 127.375C624.083 127.708 625.083 128.167 626.375 128.75C627.042 129.042 627.667 129.312 628.25 129.562C628.833 129.771 629.375 129.979 629.875 130.188C633.125 131.562 635.688 132.688 637.562 133.562C639.438 134.438 641.25 135.479 643 136.688C646.208 138.896 648.729 141.417 650.562 144.25C652.396 147.083 653.312 150.188 653.312 153.562C653.312 158.229 651.979 162.271 649.312 165.688C646.688 169.062 643.312 171.521 639.188 173.062C637.021 173.854 634.646 174.417 632.062 174.75C629.521 175.125 626.542 175.312 623.125 175.312C619.083 175.312 614.917 174.542 610.625 173C606.375 171.417 603.125 168.792 600.875 165.125C600.917 162.583 601.25 160.375 601.875 158.5C602.542 156.583 603.833 154.396 605.75 151.938ZM665.375 139.5C665.375 132.708 665.479 126.521 665.688 120.938L658.875 119.75C658.333 117.667 657.958 115.833 657.75 114.25C657.542 112.667 657.438 110.979 657.438 109.188L657.562 107.938C657.688 107.354 657.75 106.875 657.75 106.5L666.812 104.5C667.021 101.917 667.5 99 668.25 95.75C669 92.5 669.792 90.1042 670.625 88.5625C671.958 87.5625 673.562 86.8125 675.438 86.3125C677.312 85.8125 679.333 85.5625 681.5 85.5625C683.333 85.5625 685.104 85.75 686.812 86.125C688.562 86.4583 690.083 86.9167 691.375 87.5C691.5 88.9167 691.562 90.5417 691.562 92.375C691.562 95.375 691.417 98.7708 691.125 102.562L702.125 100.562C703.667 103.229 704.438 106.125 704.438 109.25C704.438 111.417 704.167 113.375 703.625 115.125C703.125 116.875 702.417 118.854 701.5 121.062C698.75 121.521 694.979 121.812 690.188 121.938C689.604 128.729 688.312 138.708 686.312 151.875L686 154L686.125 154.125L700.812 149.562C703.854 152.104 705.708 156.021 706.375 161.312C706.375 161.604 705.021 162.979 702.312 165.438C699.646 167.854 696.292 170.104 692.25 172.188C688.208 174.229 683.812 175.25 679.062 175.25C670.771 175.25 666.354 170.188 665.812 160.062C665.521 154.938 665.375 148.083 665.375 139.5Z" fill="white"/>
<path d="M83.25 153.875L73.8574 150.443L83.25 153.875ZM86.9375 147.75L90.9523 138.591L84.217 135.639L79.3914 141.188L86.9375 147.75ZM102.812 153.875L99.8096 163.413L99.8222 163.417L99.8347 163.421L102.812 153.875ZM119.5 155.75L117.787 145.898L117.749 145.904L117.711 145.911L119.5 155.75ZM121.75 155.062L126.491 163.867L129.459 162.269L130.854 159.201L121.75 155.062ZM122.25 153.312L132.098 155.05L132.106 155.003L132.114 154.956L122.25 153.312ZM111.75 141.875L107.381 150.87L107.496 150.926L107.612 150.979L111.75 141.875ZM109.562 140.812L104.996 149.709L105.094 149.759L105.193 149.808L109.562 140.812ZM94.5 132.188L88.8269 140.423L88.8792 140.459L88.932 140.494L94.5 132.188ZM84.9375 122.062L76.4151 127.294L76.4456 127.344L76.4766 127.393L84.9375 122.062ZM88.5 85.1875L81.1781 78.3765L81.1639 78.3917L81.1498 78.4071L88.5 85.1875ZM134.375 78.8125L139.473 70.2096L138.04 69.3602L136.409 69.0214L134.375 78.8125ZM140.25 83L133.665 90.5258L133.765 90.613L133.867 90.6976L140.25 83ZM145.125 88.1875H155.125V84.8361L153.105 82.1615L145.125 88.1875ZM144.25 97.6875L134.393 96.0045L134.384 96.0536L134.376 96.1028L144.25 97.6875ZM141.938 107L132.508 103.672L132.486 103.734L132.465 103.796L141.938 107ZM138.812 113.125L143.127 122.146L144.918 121.29L146.245 119.815L138.812 113.125ZM135.625 114.188L137.383 124.032L137.552 124.002L137.72 123.966L135.625 114.188ZM123.812 112.875L113.922 114.349L114.612 118.982L118.613 121.417L123.812 112.875ZM121.875 99.875L131.766 98.4009L130.807 91.9654L124.534 90.2351L121.875 99.875ZM114.188 98.4375L112.966 108.363L113.041 108.372L113.117 108.38L114.188 98.4375ZM108.688 98L108.253 88.0094L106.294 88.0946L104.512 88.9132L108.688 98ZM105.5 101L96.3863 96.8841L96.3548 96.9538L96.3244 97.0239L105.5 101ZM106.188 110.375L98.1001 116.257L98.2013 116.396L98.3073 116.531L106.188 110.375ZM109.938 113.688L104.793 122.262L109.938 113.688ZM115.562 116.625L120.035 107.681L119.936 107.631L119.836 107.584L115.562 116.625ZM118.312 118L122.957 109.144L122.871 109.099L122.785 109.056L118.312 118ZM140.938 135.062L132.513 140.45L132.55 140.507L132.587 140.564L140.938 135.062ZM139.812 163.125L147.879 169.035L147.893 169.016L147.907 168.997L139.812 163.125ZM127.938 172.25L124.321 162.927L124.285 162.941L124.249 162.955L127.938 172.25ZM89.625 170.375L84.5496 178.991L84.5752 179.006L84.6008 179.021L89.625 170.375ZM82.3125 163.188L72.527 165.248L72.8818 166.933L73.7797 168.402L82.3125 163.188ZM92.0625 160.312C92.0625 159.454 92.2183 158.468 92.6426 157.307L73.8574 150.443C72.6983 153.615 72.0625 156.921 72.0625 160.312H92.0625ZM92.6426 157.307C92.9747 156.398 93.5374 155.4 94.4836 154.312L79.3914 141.188C77.0043 143.933 75.1086 147.019 73.8574 150.443L92.6426 157.307ZM82.9227 156.909C89.2147 159.667 94.8589 161.855 99.8096 163.413L105.815 144.337C101.766 143.062 96.827 141.167 90.9523 138.591L82.9227 156.909ZM99.8347 163.421C105.347 165.141 111.018 166 116.812 166V146C113.023 146 109.361 145.442 105.79 144.329L99.8347 163.421ZM116.812 166C118.325 166 119.82 165.856 121.289 165.589L117.711 145.911C117.347 145.978 117.05 146 116.812 146V166ZM121.213 165.602C122.69 165.345 124.618 164.876 126.491 163.867L117.009 146.258C117.451 146.02 117.767 145.918 117.859 145.89C117.961 145.858 117.95 145.869 117.787 145.898L121.213 165.602ZM130.854 159.201C131.523 157.727 131.883 156.265 132.098 155.05L112.402 151.575C112.389 151.649 112.389 151.629 112.416 151.534C112.442 151.443 112.509 151.226 112.646 150.924L130.854 159.201ZM132.114 154.956C132.279 153.967 132.438 152.749 132.438 151.5H112.438C112.438 151.391 112.441 151.316 112.443 151.284C112.445 151.25 112.446 151.244 112.444 151.268C112.441 151.291 112.436 151.337 112.427 151.406C112.417 151.475 112.404 151.562 112.386 151.669L132.114 154.956ZM132.438 151.5C132.438 145.661 129.406 141.158 125.473 138.23L113.527 154.27C113.618 154.338 113.306 154.129 112.976 153.539C112.615 152.894 112.438 152.156 112.438 151.5H132.438ZM125.473 138.23C122.753 136.204 119.486 134.407 115.888 132.771L107.612 150.979C110.431 152.26 112.33 153.379 113.527 154.27L125.473 138.23ZM116.119 132.88L113.932 131.817L105.193 149.808L107.381 150.87L116.119 132.88ZM114.129 131.916C108.062 128.802 103.415 126.125 100.068 123.881L88.932 140.494C93.1682 143.334 98.5632 146.407 104.996 149.709L114.129 131.916ZM100.173 123.952C97.628 122.199 95.3602 119.846 93.3984 116.732L76.4766 127.393C79.7648 132.612 83.872 137.009 88.8269 140.423L100.173 123.952ZM93.4599 116.831C92.0443 114.525 91.0625 111.289 91.0625 106.625H71.0625C71.0625 114.128 72.664 121.183 76.4151 127.294L93.4599 116.831ZM91.0625 106.625C91.0625 99.6413 92.9518 95.1099 95.8502 91.9679L81.1498 78.4071C74.1316 86.0151 71.0625 95.7753 71.0625 106.625H91.0625ZM95.8219 91.9985C98.1768 89.467 102.872 87.125 112.312 87.125V67.125C100.003 67.125 88.8232 70.158 81.1781 78.3765L95.8219 91.9985ZM112.312 87.125C121.314 87.125 127.892 87.6795 132.341 88.6036L136.409 69.0214C130.024 67.6955 121.894 67.125 112.312 67.125V87.125ZM129.277 87.4154C131.091 88.4904 132.534 89.536 133.665 90.5258L146.835 75.4742C144.633 73.5474 142.159 71.8012 139.473 70.2096L129.277 87.4154ZM133.867 90.6976C134.897 91.5524 136 92.6973 137.145 94.2135L153.105 82.1615C151.167 79.5944 149.019 77.2809 146.633 75.3024L133.867 90.6976ZM135.125 88.1875C135.125 90.4467 134.898 93.0435 134.393 96.0045L154.107 99.3705C154.768 95.4982 155.125 91.7616 155.125 88.1875H135.125ZM134.376 96.1028C133.917 98.9639 133.283 101.476 132.508 103.672L151.367 110.328C152.592 106.857 153.499 103.161 154.124 99.2722L134.376 96.1028ZM132.465 103.796C132.097 104.883 131.775 105.631 131.53 106.112C131.272 106.616 131.192 106.644 131.38 106.435L146.245 119.815C148.732 117.052 150.303 113.478 151.41 110.204L132.465 103.796ZM134.498 104.104C134.328 104.185 134.022 104.304 133.53 104.409L137.72 123.966C139.561 123.571 141.381 122.982 143.127 122.146L134.498 104.104ZM133.867 104.343C133.473 104.414 132.665 104.5 131.312 104.5V124.5C133.376 124.5 135.444 124.378 137.383 124.032L133.867 104.343ZM131.312 104.5C129.896 104.5 129.241 104.393 129.107 104.363L124.768 123.887C126.884 124.357 129.146 124.5 131.312 124.5V104.5ZM129.107 104.363C129.057 104.352 129.033 104.343 129.026 104.34C129.021 104.338 129.017 104.336 129.012 104.333L118.613 121.417C120.533 122.586 122.603 123.406 124.768 123.887L129.107 104.363ZM133.703 111.401L131.766 98.4009L111.984 101.349L113.922 114.349L133.703 111.401ZM124.534 90.2351C121.555 89.4131 118.458 88.8395 115.258 88.495L113.117 108.38C115.334 108.619 117.362 109.004 119.216 109.515L124.534 90.2351ZM115.409 88.5124C112.808 88.1922 110.169 87.9261 108.253 88.0094L109.122 107.991C108.974 107.997 109.182 107.983 109.988 108.047C110.711 108.104 111.693 108.206 112.966 108.363L115.409 88.5124ZM104.512 88.9132C101.232 90.4204 98.1501 92.9785 96.3863 96.8841L114.614 105.116C114.351 105.699 113.981 106.193 113.588 106.563C113.213 106.916 112.92 107.061 112.863 107.087L104.512 88.9132ZM96.3244 97.0239C95.1078 99.8315 94.6875 102.756 94.6875 105.5H114.688C114.688 105.135 114.716 104.924 114.732 104.839C114.746 104.757 114.744 104.818 114.676 104.976L96.3244 97.0239ZM94.6875 105.5C94.6875 109.26 95.7292 112.997 98.1001 116.257L114.275 104.493C114.424 104.698 114.546 104.942 114.62 105.184C114.692 105.417 114.688 105.542 114.688 105.5H94.6875ZM98.3073 116.531C100.109 118.837 102.287 120.759 104.793 122.262L115.082 105.113C114.671 104.866 114.35 104.58 114.068 104.219L98.3073 116.531ZM104.793 122.262C106.634 123.367 108.828 124.503 111.289 125.666L119.836 107.584C117.713 106.581 116.158 105.758 115.082 105.113L104.793 122.262ZM111.09 125.569L113.84 126.944L122.785 109.056L120.035 107.681L111.09 125.569ZM113.668 126.856C119.467 129.897 123.773 132.423 126.735 134.446L138.015 117.929C134.144 115.286 129.075 112.353 122.957 109.144L113.668 126.856ZM126.735 134.446C129.008 135.998 130.926 137.969 132.513 140.45L149.362 129.675C146.366 124.989 142.575 121.044 138.015 117.929L126.735 134.446ZM132.587 140.564C133.655 142.185 134.438 144.476 134.438 147.938H154.438C154.438 141.315 152.887 135.023 149.288 129.561L132.587 140.564ZM134.438 147.938C134.438 151.965 133.417 154.911 131.718 157.253L147.907 168.997C152.374 162.839 154.438 155.66 154.438 147.938H134.438ZM131.746 157.215C129.782 159.895 127.364 161.746 124.321 162.927L131.554 181.573C138.178 179.004 143.676 174.772 147.879 169.035L131.746 157.215ZM124.249 162.955C122.439 163.674 120.312 164.242 117.818 164.603L120.682 184.397C124.522 183.841 128.186 182.91 131.626 181.545L124.249 162.955ZM117.818 164.603C115.242 164.976 112.072 165.188 108.25 165.188V185.188C112.761 185.188 116.925 184.941 120.682 184.397L117.818 164.603ZM108.25 165.188C106.244 165.188 103.922 164.936 101.254 164.354L96.9955 183.896C100.828 184.731 104.59 185.188 108.25 185.188V165.188ZM101.254 164.354C99.0929 163.883 96.897 163.035 94.6492 161.729L84.6008 179.021C88.5197 181.298 92.6571 182.95 96.9955 183.896L101.254 164.354ZM94.7004 161.759C93.0669 160.797 91.8192 159.567 90.8453 157.973L73.7797 168.402C76.4725 172.808 80.0998 176.37 84.5496 178.991L94.7004 161.759ZM92.098 161.127C92.1114 161.191 92.1005 161.159 92.0874 161.009C92.0746 160.861 92.0625 160.633 92.0625 160.312H72.0625C72.0625 161.883 72.1746 163.574 72.527 165.248L92.098 161.127ZM151.562 120.125L141.823 122.393L143.377 129.066L150.161 130.026L151.562 120.125ZM149.875 107L142.991 99.7469L139.875 102.704V107H149.875ZM157.812 101.75L161.62 110.997L161.678 110.973L161.735 110.948L157.812 101.75ZM182.688 126.125L172.788 124.711L172.78 124.764L172.773 124.818L182.688 126.125ZM180.5 140.438L170.636 138.794L170.636 138.794L180.5 140.438ZM179.5 146.5L189.367 148.124L179.5 146.5ZM178.375 154.75L168.419 153.811L167.994 158.322L171.105 161.616L178.375 154.75ZM181 156.312L178.304 165.942L179.626 166.312H181V156.312ZM184.438 153.25L176.93 146.644L176.921 146.654L184.438 153.25ZM195.438 137.5L204.261 142.206L205.299 140.26L205.422 138.059L195.438 137.5ZM196.812 121.062L206.745 122.221L207.813 113.065L198.774 111.257L196.812 121.062ZM190.25 119.75L180.572 122.266L182.148 128.328L188.289 129.556L190.25 119.75ZM188.812 109.188L178.819 108.831L178.812 109.009V109.188H188.812ZM188.875 107.438L181 101.274L178.997 103.833L178.881 107.081L188.875 107.438ZM219.875 133.438L229.672 135.443L229.674 135.432L219.875 133.438ZM214.75 155.062L205.092 152.469L199.711 172.506L218.737 164.233L214.75 155.062ZM221.938 151.938L229.24 145.106L224.42 139.954L217.95 142.767L221.938 151.938ZM225.125 156.688L216.141 161.08L216.2 161.201L216.263 161.32L225.125 156.688ZM226.938 163.062L235.999 167.291L237.169 164.785L236.884 162.034L226.938 163.062ZM223.125 167.875L230.12 175.022L230.158 174.984L230.196 174.946L223.125 167.875ZM199.062 172.188L191.555 178.794L191.625 178.873L191.697 178.952L199.062 172.188ZM196.938 159.125L187.091 157.378L187.078 157.455L187.065 157.533L196.938 159.125ZM198.062 153.75L207.663 156.55L210.387 147.208L201.123 144.23L198.062 153.75ZM196.312 153.188L199.373 143.667L189.536 140.505L186.697 150.44L196.312 153.188ZM187.688 169.688L180.577 162.656L180.557 162.677L180.537 162.697L187.688 169.688ZM161.062 168.625L152.551 173.875L152.562 173.893L152.574 173.911L161.062 168.625ZM158.188 121.062L168.137 122.062L169.098 112.507L159.589 111.161L158.188 121.062ZM161.302 117.857C160.601 114.847 160.225 112.961 160.081 111.983L140.294 114.892C140.567 116.747 141.107 119.32 141.823 122.393L161.302 117.857ZM160.081 111.983C159.983 111.317 159.875 109.77 159.875 107H139.875C139.875 109.98 139.975 112.724 140.294 114.892L160.081 111.983ZM156.759 114.253C158.418 112.678 160.041 111.647 161.62 110.997L154.005 92.5032C149.917 94.1865 146.248 96.6551 142.991 99.7469L156.759 114.253ZM161.735 110.948C163.156 110.342 164.981 109.938 167.375 109.938V89.9375C162.686 89.9375 158.135 90.741 153.89 92.5516L161.735 110.948ZM167.375 109.938C171.199 109.938 172.232 110.889 172.384 111.042C172.543 111.202 173.5 112.261 173.5 116.125H193.5C193.5 109.197 191.769 102.163 186.553 96.927C181.331 91.6838 174.301 89.9375 167.375 89.9375V109.938ZM173.5 116.125C173.5 118.401 173.283 121.244 172.788 124.711L192.587 127.539C193.175 123.423 193.5 119.599 193.5 116.125H173.5ZM172.773 124.818C172.294 128.455 171.584 133.104 170.636 138.794L190.364 142.081C191.332 136.271 192.081 131.378 192.602 127.432L172.773 124.818ZM170.636 138.794C170.509 139.556 170.174 141.589 169.633 144.876L189.367 148.124C189.91 144.828 190.241 142.819 190.364 142.081L170.636 138.794ZM169.633 144.876C169.07 148.294 168.657 151.29 168.419 153.811L188.331 155.689C188.51 153.793 188.846 151.289 189.367 148.124L169.633 144.876ZM171.105 161.616C173.121 163.751 175.604 165.186 178.304 165.942L183.696 146.683C183.971 146.76 184.312 146.893 184.677 147.11C185.045 147.329 185.373 147.595 185.645 147.884L171.105 161.616ZM181 166.312C184.043 166.312 186.215 164.962 186.767 164.619C187.659 164.066 188.388 163.458 188.886 163.013C189.912 162.1 190.959 160.979 191.954 159.846L176.921 146.654C176.124 147.563 175.703 147.973 175.582 148.08C175.508 148.146 175.744 147.921 176.225 147.623C176.475 147.468 176.952 147.192 177.618 146.935C178.242 146.694 179.433 146.312 181 146.312V166.312ZM191.945 159.856C194.075 157.436 196.256 154.615 198.489 151.445L182.136 139.93C180.202 142.676 178.467 144.898 176.93 146.644L191.945 159.856ZM198.489 151.445C200.748 148.237 202.689 145.153 204.261 142.206L186.614 132.794C185.519 134.847 184.044 137.221 182.136 139.93L198.489 151.445ZM205.422 138.059C205.746 132.265 206.189 126.989 206.745 122.221L186.88 119.904C186.269 125.136 185.796 130.818 185.453 136.941L205.422 138.059ZM198.774 111.257L192.211 109.944L188.289 129.556L194.851 130.868L198.774 111.257ZM199.928 117.234C199.457 115.422 199.179 114.008 199.04 112.945L179.21 115.555C179.487 117.659 179.96 119.912 180.572 122.266L199.928 117.234ZM199.04 112.945C198.894 111.843 198.812 110.595 198.812 109.188H178.812C178.812 111.364 178.939 113.49 179.21 115.555L199.04 112.945ZM198.806 109.544L198.869 107.794L178.881 107.081L178.819 108.831L198.806 109.544ZM196.75 113.601C197.085 113.173 198.016 112.264 200.196 111.144L191.054 93.3557C187.234 95.319 183.665 97.8687 181 101.274L196.75 113.601ZM200.196 111.144C201.584 110.431 203.414 109.938 205.938 109.938V89.9375C200.711 89.9375 195.666 90.986 191.054 93.3557L200.196 111.144ZM205.938 109.938C209.761 109.938 210.794 110.889 210.947 111.042C211.106 111.202 212.062 112.261 212.062 116.125H232.062C232.062 109.197 230.332 102.163 225.116 96.927C219.893 91.6838 212.864 89.9375 205.938 89.9375V109.938ZM212.062 116.125C212.062 119.534 211.477 124.559 210.076 131.443L229.674 135.432C231.19 127.983 232.062 121.466 232.062 116.125H212.062ZM210.078 131.432C208.662 138.352 207 145.364 205.092 152.469L224.408 157.656C226.416 150.177 228.172 142.773 229.672 135.443L210.078 131.432ZM218.737 164.233L225.925 161.108L217.95 142.767L210.763 145.892L218.737 164.233ZM214.635 158.769C215.056 159.219 215.584 159.941 216.141 161.08L234.109 152.295C232.832 149.684 231.236 147.239 229.24 145.106L214.635 158.769ZM216.263 161.32C216.542 161.854 216.848 162.718 216.991 164.091L236.884 162.034C236.527 158.574 235.625 155.187 233.987 152.055L216.263 161.32ZM217.876 158.834C218.03 158.502 218.069 158.538 217.708 158.993C217.379 159.41 216.849 160.009 216.054 160.804L230.196 174.946C232.32 172.822 234.642 170.199 235.999 167.291L217.876 158.834ZM216.13 160.728C214.964 161.87 213.383 163.037 211.259 164.162L220.616 181.838C224.158 179.963 227.37 177.713 230.12 175.022L216.13 160.728ZM211.259 164.162C209.807 164.93 208.449 165.25 207.062 165.25V185.25C211.843 185.25 216.401 184.07 220.616 181.838L211.259 164.162ZM207.062 165.25C206.305 165.25 206.023 165.137 206.044 165.145C206.057 165.15 206.12 165.177 206.208 165.236C206.297 165.296 206.373 165.364 206.428 165.423L191.697 178.952C195.916 183.545 201.547 185.25 207.062 185.25V165.25ZM206.57 165.581C206.518 165.523 206.486 165.475 206.449 165.367C206.404 165.238 206.312 164.9 206.312 164.25H186.312C186.312 169.487 187.868 174.603 191.555 178.794L206.57 165.581ZM206.312 164.25C206.312 164.417 206.304 164.45 206.318 164.278C206.33 164.128 206.354 163.892 206.395 163.554C206.478 162.875 206.613 161.94 206.81 160.717L187.065 157.533C186.674 159.955 186.312 162.473 186.312 164.25H206.312ZM206.784 160.872C207.245 158.27 207.54 156.969 207.663 156.55L188.462 150.95C188.001 152.531 187.546 154.813 187.091 157.378L206.784 160.872ZM201.123 144.23L199.373 143.667L193.252 162.708L195.002 163.27L201.123 144.23ZM186.697 150.44C184.88 156.801 182.646 160.564 180.577 162.656L194.798 176.719C200.062 171.395 203.578 164.158 205.928 155.935L186.697 150.44ZM180.537 162.697C178.563 164.716 176.913 165.25 175.25 165.25V185.25C182.921 185.25 189.562 182.075 194.838 176.678L180.537 162.697ZM175.25 165.25C170.86 165.25 169.947 163.975 169.551 163.339L152.574 173.911C157.678 182.109 166.223 185.25 175.25 185.25V165.25ZM169.574 163.375C168.018 160.854 166.938 157.264 166.938 152.062H146.938C146.938 160.028 148.607 167.48 152.551 173.875L169.574 163.375ZM166.938 152.062C166.938 139.878 167.349 129.905 168.137 122.062L148.238 120.063C147.359 128.804 146.938 139.497 146.938 152.062H166.938ZM159.589 111.161L152.964 110.224L150.161 130.026L156.786 130.964L159.589 111.161ZM231 120.375L221.484 123.449L223.358 129.248L229.371 130.241L231 120.375ZM229.25 113.125L219.318 114.293L219.33 114.389L219.343 114.485L229.25 113.125ZM228.875 104.875L222.29 97.3492L218.875 100.337V104.875H228.875ZM232.125 102.875L236.597 111.819L236.695 111.77L236.793 111.719L232.125 102.875ZM254.625 103.188L247.417 110.119L247.451 110.154L247.486 110.19L254.625 103.188ZM256.75 122.75L266.598 124.484L266.602 124.463L266.606 124.442L256.75 122.75ZM255.438 133.812L249.625 141.95L250.037 142.244L250.476 142.495L255.438 133.812ZM257.125 133.625L266.316 137.564L266.632 136.828L266.826 136.05L257.125 133.625ZM257.75 131.125L248.069 128.619L248.059 128.659L248.049 128.7L257.75 131.125ZM259.125 125.812L249.458 123.252L249.451 123.279L249.444 123.307L259.125 125.812ZM268.25 107.125L275.866 113.605L275.88 113.589L275.894 113.572L268.25 107.125ZM294.688 102.938L288.977 111.147L289.045 111.194L289.113 111.24L294.688 102.938ZM301 110.75L291.707 114.443L291.715 114.464L291.724 114.485L301 110.75ZM301.438 139.062L311.321 140.583L311.323 140.574L301.438 139.062ZM297.438 157.312L287.844 154.491L287.842 154.499L297.438 157.312ZM289.312 170.5L295.813 178.099L295.82 178.093L289.312 170.5ZM268.062 174.312L270.419 164.594L270.365 164.581L270.311 164.569L268.062 174.312ZM257.75 171L261.302 161.652L250.385 157.504L247.967 168.929L257.75 171ZM255.25 182.812L245.467 180.742L244.344 186.048L248.179 189.884L255.25 182.812ZM255.375 182.938L248.304 190.009L251.518 193.223L256.054 192.914L255.375 182.938ZM267.312 182.125L275.491 176.37L272.251 171.766L266.633 172.148L267.312 182.125ZM269.062 186.188L259.332 188.492L259.353 188.582L259.376 188.671L269.062 186.188ZM270.125 191.75L260.222 193.136L260.228 193.185L260.236 193.233L270.125 191.75ZM270.312 193H280.312V192.254L280.202 191.517L270.312 193ZM267.562 195.312L261.562 187.312L261.505 187.356L261.448 187.4L267.562 195.312ZM260.25 199.188L256.669 189.851L256.613 189.872L256.558 189.894L260.25 199.188ZM236.562 148.438L226.565 148.228L226.564 148.249L226.564 148.269L236.562 148.438ZM237.812 121.5L247.782 122.279L248.497 113.129L239.442 111.634L237.812 121.5ZM275 158.625L278.162 168.112L283.274 166.408L284.662 161.202L275 158.625ZM276.938 128.312L286.792 126.613L286.358 124.098L284.772 122.099L276.938 128.312ZM272.812 126.5V116.5H269.113L266.305 118.907L272.812 126.5ZM266.812 136.375L275.517 141.298L275.524 141.285L275.531 141.272L266.812 136.375ZM259.25 150.312L250.306 145.84L249.25 147.952V150.312H259.25ZM259.25 153.312H249.25V158.558L253.566 161.54L259.25 153.312ZM267.188 157.25L263.907 166.697L263.966 166.717L264.025 166.737L267.188 157.25ZM240.516 117.301C239.767 114.982 239.348 113.155 239.157 111.765L219.343 114.485C219.735 117.345 220.483 120.351 221.484 123.449L240.516 117.301ZM239.182 111.957C238.995 110.374 238.875 108.055 238.875 104.875H218.875C218.875 108.445 219.005 111.626 219.318 114.293L239.182 111.957ZM235.46 112.401C235.394 112.458 235.344 112.499 235.313 112.523C235.298 112.535 235.286 112.544 235.278 112.55C235.27 112.556 235.266 112.559 235.266 112.559C235.265 112.559 235.279 112.55 235.307 112.531C235.335 112.513 235.375 112.487 235.428 112.454C235.656 112.314 236.032 112.102 236.597 111.819L227.653 93.9307C225.94 94.787 223.936 95.9088 222.29 97.3492L235.46 112.401ZM236.793 111.719C237.521 111.334 238.619 110.884 240.196 110.442L234.804 91.1829C232.214 91.9079 229.729 92.8324 227.457 94.0312L236.793 111.719ZM240.196 110.442C241.384 110.11 242.622 109.938 243.938 109.938V89.9375C240.837 89.9375 237.783 90.3487 234.804 91.1829L240.196 110.442ZM243.938 109.938C245.796 109.938 246.91 110.144 247.481 110.317C248.014 110.479 247.81 110.528 247.417 110.119L261.833 96.2564C256.925 91.1514 249.952 89.9375 243.938 89.9375V109.938ZM247.486 110.19C247.117 109.813 247.812 110.097 247.812 112.938H267.812C267.812 107.111 266.383 100.895 261.764 96.1854L247.486 110.19ZM247.812 112.938C247.812 114.522 247.565 117.15 246.894 121.058L266.606 124.442C267.351 120.1 267.812 116.186 267.812 112.938H247.812ZM246.902 121.016C246.317 124.336 245.874 126.894 245.575 128.675C245.427 129.56 245.308 130.288 245.224 130.835C245.183 131.104 245.143 131.376 245.111 131.624C245.095 131.745 245.075 131.909 245.057 132.09C245.049 132.172 245 132.63 245 133.188H265C265 133.499 264.985 133.738 264.978 133.833C264.97 133.951 264.961 134.041 264.957 134.087C264.948 134.177 264.941 134.225 264.944 134.206C264.948 134.174 264.962 134.068 264.994 133.86C265.056 133.454 265.157 132.836 265.3 131.982C265.585 130.283 266.016 127.789 266.598 124.484L246.902 121.016ZM245 133.188C245 138.383 248.57 141.196 249.625 141.95L261.25 125.675C261.68 125.982 262.517 126.644 263.302 127.765C264.142 128.966 265 130.824 265 133.188H245ZM250.476 142.495C252.266 143.518 254.287 144.062 256.375 144.062V124.062C257.796 124.062 259.192 124.44 260.399 125.13L250.476 142.495ZM256.375 144.062C257.821 144.062 259.84 143.783 261.882 142.591C264.04 141.333 265.495 139.481 266.316 137.564L247.934 129.686C248.63 128.061 249.898 126.428 251.805 125.315C253.598 124.27 255.304 124.062 256.375 124.062V144.062ZM266.826 136.05L267.451 133.55L248.049 128.7L247.424 131.2L266.826 136.05ZM267.431 133.631L268.806 128.318L249.444 123.307L248.069 128.619L267.431 133.631ZM268.792 128.373C270.554 121.719 273.023 116.947 275.866 113.605L260.634 100.645C255.394 106.803 251.779 114.489 249.458 123.252L268.792 128.373ZM275.894 113.572C278.087 110.973 280.401 109.938 283.5 109.938V89.9375C274.349 89.9375 266.496 93.6941 260.606 100.678L275.894 113.572ZM283.5 109.938C286.666 109.938 288.226 110.625 288.977 111.147L300.398 94.7284C295.399 91.2505 289.501 89.9375 283.5 89.9375V109.938ZM289.113 111.24C290.362 112.078 291.165 113.079 291.707 114.443L310.293 107.057C308.252 101.921 304.847 97.7138 300.262 94.6353L289.113 111.24ZM291.724 114.485C292.483 116.371 292.938 118.626 292.938 121.375H312.938C312.938 116.374 312.1 111.545 310.276 107.015L291.724 114.485ZM292.938 121.375C292.938 126.009 292.495 131.387 291.552 137.551L311.323 140.574C312.38 133.654 312.938 127.241 312.938 121.375H292.938ZM291.554 137.542C290.614 143.651 289.372 149.296 287.844 154.491L307.031 160.134C308.836 153.996 310.261 147.474 311.321 140.583L291.554 137.542ZM287.842 154.499C286.674 158.48 284.907 161.105 282.805 162.907L295.82 178.093C301.301 173.395 304.951 167.229 307.033 160.126L287.842 154.499ZM282.812 162.901C281.125 164.344 278.845 165.312 275.25 165.312V185.312C282.905 185.312 290 183.072 295.813 178.099L282.812 162.901ZM275.25 165.312C274.241 165.312 272.67 165.14 270.419 164.594L265.706 184.031C268.955 184.819 272.176 185.312 275.25 185.312V165.312ZM270.311 164.569C268.228 164.088 265.264 163.158 261.302 161.652L254.198 180.348C258.569 182.009 262.48 183.287 265.814 184.056L270.311 164.569ZM247.967 168.929L245.467 180.742L265.033 184.883L267.533 173.071L247.967 168.929ZM248.179 189.884L248.304 190.009L262.446 175.866L262.321 175.741L248.179 189.884ZM256.054 192.914L267.992 192.102L266.633 172.148L254.696 172.961L256.054 192.914ZM259.134 187.88C259.073 187.792 259.197 187.925 259.332 188.492L278.793 183.883C278.178 181.283 277.135 178.708 275.491 176.37L259.134 187.88ZM259.376 188.671C259.68 189.858 259.969 191.334 260.222 193.136L280.028 190.364C279.697 187.999 279.278 185.767 278.749 183.704L259.376 188.671ZM260.236 193.233L260.423 194.483L280.202 191.517L280.014 190.267L260.236 193.233ZM260.312 193C260.312 190.9 260.978 189.363 261.262 188.762C261.606 188.036 261.964 187.511 262.159 187.241C262.551 186.698 262.898 186.342 262.991 186.247C263.217 186.016 263.337 185.925 263.189 186.05C262.948 186.252 262.438 186.656 261.562 187.312L273.562 203.312C274.52 202.594 275.385 201.925 276.061 201.357C276.372 201.095 276.835 200.695 277.291 200.229C277.498 200.018 277.931 199.563 278.38 198.941C278.604 198.631 278.984 198.071 279.341 197.315C279.64 196.684 280.312 195.121 280.312 193H260.312ZM261.448 187.4C260.627 188.034 259.139 188.903 256.669 189.851L263.831 208.524C267.444 207.139 270.831 205.424 273.677 203.225L261.448 187.4ZM256.558 189.894C254.909 190.549 252.702 191 249.75 191V211C254.715 211 259.507 210.243 263.942 208.481L256.558 189.894ZM249.75 191C246.979 191 246.695 190.292 246.962 190.577C247.118 190.743 246.312 190.068 246.312 186.688H226.312C226.312 192.848 227.746 199.33 232.381 204.267C237.128 209.322 243.562 211 249.75 211V191ZM246.312 186.688V182.375H226.312V186.688H246.312ZM246.312 182.375C246.312 169.708 246.396 158.453 246.561 148.606L226.564 148.269C226.396 158.255 226.312 169.625 226.312 182.375H246.312ZM246.56 148.647C246.766 138.835 247.175 130.051 247.782 122.279L227.843 120.721C227.2 128.949 226.776 138.123 226.565 148.228L246.56 148.647ZM239.442 111.634L232.629 110.509L229.371 130.241L236.183 131.366L239.442 111.634ZM284.662 161.202C286.51 154.274 287.25 144.685 287.25 133.062H267.25C267.25 144.273 266.49 151.726 265.338 156.048L284.662 161.202ZM287.25 133.062C287.25 130.828 287.137 128.613 286.792 126.613L267.083 130.012C267.155 130.429 267.25 131.38 267.25 133.062H287.25ZM284.772 122.099C281.597 118.095 277.102 116.5 272.812 116.5V136.5C272.586 136.5 271.966 136.46 271.165 136.108C270.32 135.737 269.607 135.163 269.103 134.526L284.772 122.099ZM266.305 118.907C264.983 120.04 264.04 121.482 263.845 121.768C263.381 122.449 262.867 123.265 262.329 124.151C261.24 125.943 259.821 128.403 258.094 131.478L275.531 141.272C277.221 138.264 278.51 136.036 279.421 134.536C279.883 133.777 280.192 133.296 280.374 133.029C280.466 132.893 280.47 132.895 280.402 132.981C280.367 133.027 280.275 133.143 280.135 133.298C280.015 133.432 279.735 133.737 279.32 134.093L266.305 118.907ZM258.108 131.452C254.668 137.535 252.047 142.358 250.306 145.84L268.194 154.785C269.703 151.767 272.123 147.298 275.517 141.298L258.108 131.452ZM249.25 150.312V153.312H269.25V150.312H249.25ZM253.566 161.54C256.695 163.702 260.172 165.4 263.907 166.697L270.468 147.803C268.203 147.017 266.388 146.09 264.934 145.085L253.566 161.54ZM264.025 166.737C267.239 167.808 270.797 168.75 274.062 168.75V148.75C274.241 148.75 274.034 148.768 273.288 148.605C272.586 148.452 271.62 148.186 270.35 147.763L264.025 166.737ZM274.062 168.75C275.096 168.75 276.561 168.645 278.162 168.112L271.838 149.138C272.939 148.771 273.779 148.75 274.062 148.75V168.75ZM325.062 104.938L330.529 113.311L330.538 113.305L330.546 113.3L325.062 104.938ZM355.938 101.375L353.584 111.094L353.633 111.106L353.681 111.117L355.938 101.375ZM366 106L372.263 98.2038L372.226 98.1743L372.189 98.1451L366 106ZM371.5 114.125L362.013 117.287L362.037 117.358L362.061 117.429L371.5 114.125ZM372.562 133.562L381.137 138.707L382.127 137.058L382.434 135.159L372.562 133.562ZM369.625 136.875L376.373 144.255L376.429 144.204L376.485 144.151L369.625 136.875ZM364.5 140.812L358.994 132.465L364.5 140.812ZM358.812 143.812L359.525 153.787L361.019 153.68L362.416 153.14L358.812 143.812ZM334.5 142.562L335.96 132.67L323.35 130.809L324.544 143.5L334.5 142.562ZM337.75 151.812L329.552 157.538L337.75 151.812ZM348.312 155.625L347.334 145.673L347.326 145.674L347.317 145.675L348.312 155.625ZM357.188 153.625L360.244 163.147L360.279 163.135L360.315 163.123L357.188 153.625ZM367.375 149.75L374.446 142.679L369.643 137.876L363.408 140.57L367.375 149.75ZM372.438 161.312L380.015 167.838L382.809 164.593L382.389 160.331L372.438 161.312ZM366.125 166.812L360.162 158.785L360.134 158.806L360.106 158.826L366.125 166.812ZM355.562 172.688L359.356 181.94L359.395 181.924L359.435 181.907L355.562 172.688ZM324.938 170.312L319.26 178.545L319.301 178.573L319.342 178.6L324.938 170.312ZM313.938 156.812L304.753 160.768L304.77 160.808L304.788 160.849L313.938 156.812ZM350.5 123.312L360.42 122.05L360.013 118.849L357.811 116.489L350.5 123.312ZM347.562 121.875L344.931 131.523L345.068 131.56L345.206 131.594L347.562 121.875ZM339.562 121.625L337.919 111.761L337.891 111.766L337.863 111.77L339.562 121.625ZM337.375 122.312L330.304 115.241L329.178 116.367L328.458 117.787L337.375 122.312ZM334.688 131.812L324.743 130.76L323.452 142.954L335.657 141.765L334.688 131.812ZM351.375 130.188L352.344 140.14L362.595 139.142L361.295 128.925L351.375 130.188ZM320.25 137.688C320.25 131.601 321.268 126.532 323.073 122.298L304.677 114.452C301.649 121.552 300.25 129.357 300.25 137.688H320.25ZM323.073 122.298C324.733 118.406 327.185 115.495 330.529 113.311L319.596 96.5641C312.857 100.964 307.85 107.01 304.677 114.452L323.073 122.298ZM330.546 113.3C333.639 111.272 337.945 109.938 344.062 109.938V89.9375C335.013 89.9375 326.653 91.9363 319.579 96.5751L330.546 113.3ZM344.062 109.938C347.205 109.938 350.374 110.317 353.584 111.094L358.291 91.6558C353.584 90.5163 348.836 89.9375 344.062 89.9375V109.938ZM353.681 111.117C356.435 111.755 358.389 112.734 359.811 113.855L372.189 98.1451C368.111 94.9324 363.356 92.8284 358.194 91.6328L353.681 111.117ZM359.737 113.796C360.646 114.526 361.438 115.562 362.013 117.287L380.987 110.963C379.312 105.938 376.438 101.558 372.263 98.2038L359.737 113.796ZM362.061 117.429C362.803 119.549 363.25 122.119 363.25 125.25H383.25C383.25 120.214 382.53 115.368 380.939 110.821L362.061 117.429ZM363.25 125.25C363.25 127.393 363.069 129.629 362.691 131.966L382.434 135.159C382.973 131.829 383.25 128.524 383.25 125.25H363.25ZM363.988 128.418C364.095 128.239 364.162 128.153 364.149 128.17C364.14 128.182 364.086 128.251 363.971 128.381C363.735 128.647 363.348 129.049 362.765 129.599L376.485 144.151C378.06 142.666 379.892 140.783 381.137 138.707L363.988 128.418ZM362.877 129.495C361.871 130.415 360.592 131.411 358.994 132.465L370.006 149.16C372.324 147.631 374.463 146.002 376.373 144.255L362.877 129.495ZM358.994 132.465C357.522 133.436 356.261 134.078 355.209 134.485L362.416 153.14C365.031 152.13 367.562 150.773 370.006 149.16L358.994 132.465ZM358.1 133.838C356.603 133.945 355.028 134 353.375 134V154C355.472 154 357.522 153.93 359.525 153.787L358.1 133.838ZM353.375 134C350.379 134 347.333 133.867 344.236 133.6L342.514 153.525C346.167 153.841 349.788 154 353.375 154V134ZM344.236 133.6C341.002 133.32 338.252 133.008 335.96 132.67L333.04 152.455C335.832 152.867 338.998 153.221 342.514 153.525L344.236 133.6ZM324.544 143.5C325.021 148.567 326.622 153.343 329.552 157.538L345.948 146.087C345.212 145.032 344.646 143.641 344.456 141.625L324.544 143.5ZM329.552 157.538C333.725 163.513 340.148 165.75 346.5 165.75V145.75C345.571 145.75 345.304 145.596 345.416 145.646C345.477 145.674 345.587 145.734 345.71 145.836C345.833 145.939 345.912 146.035 345.948 146.087L329.552 157.538ZM346.5 165.75C347.413 165.75 348.444 165.662 349.308 165.575L347.317 145.675C346.968 145.71 346.716 145.731 346.546 145.742C346.463 145.748 346.416 145.75 346.399 145.751C346.378 145.752 346.417 145.75 346.5 145.75V165.75ZM349.291 165.577C352.751 165.237 356.433 164.37 360.244 163.147L354.131 144.103C351.192 145.047 348.957 145.513 347.334 145.673L349.291 165.577ZM360.315 163.123C364.022 161.903 367.698 160.504 371.342 158.93L363.408 140.57C360.302 141.913 357.186 143.097 354.06 144.127L360.315 163.123ZM360.304 156.821C361.291 157.809 361.693 158.476 361.838 158.781L379.912 150.219C378.557 147.357 376.625 144.858 374.446 142.679L360.304 156.821ZM361.838 158.781C361.821 158.745 361.933 158.98 362.081 159.626C362.225 160.254 362.371 161.128 362.486 162.294L382.389 160.331C382.052 156.911 381.381 153.319 379.912 150.219L361.838 158.781ZM364.86 154.787C364.293 155.445 362.89 156.758 360.162 158.785L372.088 174.84C375.193 172.533 377.999 170.18 380.015 167.838L364.86 154.787ZM360.106 158.826C358.036 160.387 355.278 161.961 351.69 163.468L359.435 181.907C364.18 179.914 368.464 177.572 372.144 174.799L360.106 158.826ZM351.769 163.435C348.817 164.645 345.752 165.25 342.5 165.25V185.25C348.331 185.25 353.975 184.146 359.356 181.94L351.769 163.435ZM342.5 165.25C337.33 165.25 333.501 164.029 330.533 162.025L319.342 178.6C326.124 183.18 334.003 185.25 342.5 185.25V165.25ZM330.615 162.08C327.39 159.856 324.883 156.847 323.087 152.776L304.788 160.849C307.992 168.111 312.819 174.102 319.26 178.545L330.615 162.08ZM323.122 152.857C321.269 148.554 320.25 143.549 320.25 137.688H300.25C300.25 145.909 301.69 153.655 304.753 160.768L323.122 152.857ZM357.811 116.489C355.28 113.778 352.073 112.679 349.919 112.156L345.206 131.594C345.386 131.637 345.253 131.624 344.933 131.467C344.615 131.311 343.924 130.922 343.189 130.136L357.811 116.489ZM350.194 112.227C347.917 111.607 345.592 111.312 343.25 111.312V131.312C343.908 131.312 344.458 131.393 344.931 131.523L350.194 112.227ZM343.25 111.312C341.465 111.312 339.686 111.467 337.919 111.761L341.206 131.489C341.939 131.367 342.619 131.312 343.25 131.312V111.312ZM337.863 111.77C337.048 111.911 336.076 112.11 335.111 112.413C334.601 112.574 332.279 113.266 330.304 115.241L344.446 129.384C343.425 130.405 342.44 130.919 342.048 131.111C341.58 131.34 341.23 131.455 341.108 131.493C340.872 131.567 340.869 131.547 341.262 131.48L337.863 111.77ZM328.458 117.787C326.42 121.803 325.229 126.173 324.743 130.76L344.632 132.865C344.896 130.369 345.497 128.405 346.292 126.838L328.458 117.787ZM335.657 141.765L352.344 140.14L350.406 120.235L333.718 121.86L335.657 141.765ZM361.295 128.925L360.42 122.05L340.58 124.575L341.455 131.45L361.295 128.925ZM388 144.062L397.999 144.182L397.999 144.167L398 144.153L388 144.062ZM388.188 121.5H398.188V112.998L389.797 111.63L388.188 121.5ZM382.438 120.562L372.951 123.725L374.862 129.459L380.828 130.432L382.438 120.562ZM380.312 105.562L373.696 98.0641L370.714 100.696L370.354 104.657L380.312 105.562ZM388.938 101L392.042 110.506L392.129 110.478L392.215 110.448L388.938 101ZM405.938 103.25L398.866 110.321L398.899 110.354L398.933 110.387L405.938 103.25ZM408.312 122.875L398.446 121.248L398.439 121.289L398.432 121.331L408.312 122.875ZM406.375 131.438L397.059 127.802L392.581 139.277L404.731 141.301L406.375 131.438ZM408.625 131.812L406.981 141.676L415.956 143.172L418.29 134.378L408.625 131.812ZM412.375 117.688L422.04 120.253L422.045 120.235L422.05 120.217L412.375 117.688ZM418.625 104.062L425.973 110.845L425.999 110.817L426.024 110.789L418.625 104.062ZM433.125 100.875L430.142 110.42L430.17 110.428L430.198 110.437L433.125 100.875ZM437.812 103.188L446.926 99.0716L445.996 97.0128L444.272 95.5536L437.812 103.188ZM438.688 122.438L448.493 124.399L448.496 124.385L448.499 124.372L438.688 122.438ZM436.438 129.5L435.116 139.412L442.121 140.346L445.34 134.055L436.438 129.5ZM423.312 127.75L424.634 117.838L419.548 117.16L416.031 120.896L423.312 127.75ZM414.812 139.562L423.387 144.707L423.397 144.692L423.406 144.676L414.812 139.562ZM407.625 153.375L398.424 149.458L397.664 151.243L397.627 153.183L407.625 153.375ZM407.562 156.625L397.564 156.433L397.316 169.332L409.87 166.355L407.562 156.625ZM419.688 153.75L428.059 148.281L424.216 142.399L417.38 144.02L419.688 153.75ZM423.25 164.875H433.25V164.487L433.22 164.101L423.25 164.875ZM413 172.938L417.423 181.906L417.448 181.894L417.472 181.882L413 172.938ZM392.25 171.938L385.931 179.688L385.996 179.741L386.061 179.792L392.25 171.938ZM387.938 160.812L397.932 160.493L397.927 160.32L397.915 160.147L387.938 160.812ZM397.875 157.25C397.875 155.531 397.916 151.203 397.999 144.182L378.001 143.943C377.918 150.922 377.875 155.386 377.875 157.25H397.875ZM398 144.153C398.124 130.444 398.188 122.851 398.188 121.5H378.188C378.188 122.732 378.126 130.181 378 143.972L398 144.153ZM389.797 111.63L384.047 110.693L380.828 130.432L386.578 131.37L389.797 111.63ZM391.924 117.4C391.274 115.449 390.858 113.753 390.624 112.295L370.876 115.455C371.309 118.164 372.018 120.926 372.951 123.725L391.924 117.4ZM390.624 112.295C390.375 110.738 390.25 109.162 390.25 107.562H370.25C370.25 110.213 370.458 112.845 370.876 115.455L390.624 112.295ZM390.25 107.562C390.25 107.199 390.254 106.922 390.261 106.719C390.267 106.504 390.275 106.434 390.271 106.468L370.354 104.657C370.27 105.575 370.25 106.603 370.25 107.562H390.25ZM386.929 113.061C386.868 113.115 386.957 113.03 387.291 112.803C387.607 112.588 388.056 112.305 388.664 111.95L378.586 94.6747C376.908 95.6537 375.139 96.7909 373.696 98.0641L386.929 113.061ZM388.664 111.95C389.428 111.505 390.522 111.002 392.042 110.506L385.833 91.4939C383.269 92.3312 380.822 93.3703 378.586 94.6747L388.664 111.95ZM392.215 110.448C393.221 110.099 394.197 109.938 395.188 109.938V89.9375C391.928 89.9375 388.737 90.4847 385.66 91.5524L392.215 110.448ZM395.188 109.938C396.97 109.938 398.062 110.141 398.649 110.322C399.194 110.49 399.124 110.579 398.866 110.321L413.009 96.1789C408.077 91.2478 401.293 89.9375 395.188 89.9375V109.938ZM398.933 110.387C398.869 110.324 398.925 110.331 399.025 110.618C399.142 110.954 399.312 111.671 399.312 112.938H419.312C419.312 106.967 417.701 100.784 412.942 96.1132L398.933 110.387ZM399.312 112.938C399.312 114.756 399.069 117.471 398.446 121.248L418.179 124.502C418.89 120.195 419.312 116.286 419.312 112.938H399.312ZM398.432 121.331C397.818 125.261 397.3 127.184 397.059 127.802L415.691 135.073C416.783 132.274 417.557 128.489 418.193 124.419L398.432 121.331ZM404.731 141.301L406.981 141.676L410.269 121.949L408.019 121.574L404.731 141.301ZM418.29 134.378L422.04 120.253L402.71 115.122L398.96 129.247L418.29 134.378ZM422.05 120.217C423.581 114.36 425.15 111.737 425.973 110.845L411.277 97.2797C407.1 101.804 404.502 108.265 402.7 115.158L422.05 120.217ZM426.024 110.789C426.58 110.178 426.923 109.991 427.001 109.953C427.042 109.933 427.05 109.934 427.033 109.937C427.017 109.941 427.021 109.938 427.062 109.938V89.9375C420.587 89.9375 415.23 92.9312 411.226 97.3358L426.024 110.789ZM427.062 109.938C428.066 109.938 429.082 110.088 430.142 110.42L436.108 91.3302C433.168 90.4115 430.142 89.9375 427.062 89.9375V109.938ZM430.198 110.437C430.815 110.626 431.198 110.788 431.404 110.89C431.614 110.993 431.555 110.992 431.353 110.821L444.272 95.5536C441.768 93.4346 438.797 92.1534 436.052 91.313L430.198 110.437ZM428.699 107.303C429.06 108.102 429.562 109.966 429.562 113.5H449.562C449.562 108.45 448.899 103.439 446.926 99.0716L428.699 107.303ZM429.562 113.5C429.562 115.847 429.335 118.179 428.876 120.503L448.499 124.372C449.207 120.78 449.562 117.153 449.562 113.5H429.562ZM428.882 120.476C428.401 122.878 427.885 124.262 427.535 124.945L445.34 134.055C446.824 131.155 447.807 127.83 448.493 124.399L428.882 120.476ZM437.759 119.588L424.634 117.838L421.991 137.662L435.116 139.412L437.759 119.588ZM416.031 120.896C412.681 124.455 409.424 129.063 406.219 134.449L423.406 144.676C426.201 139.979 428.61 136.712 430.594 134.604L416.031 120.896ZM406.238 134.418C403.062 139.711 400.437 144.73 398.424 149.458L416.826 157.292C418.396 153.603 420.563 149.414 423.387 144.707L406.238 134.418ZM397.627 153.183L397.564 156.433L417.561 156.817L417.623 153.567L397.627 153.183ZM409.87 166.355L421.995 163.48L417.38 144.02L405.255 146.895L409.87 166.355ZM411.316 159.219C412.307 160.736 413.057 162.773 413.28 165.649L433.22 164.101C432.777 158.393 431.152 153.014 428.059 148.281L411.316 159.219ZM413.25 164.875C413.25 163.422 413.571 162.304 413.767 161.726C413.981 161.093 414.217 160.612 414.368 160.326C414.663 159.768 414.938 159.391 415.027 159.271C415.223 159.005 415.325 158.908 415.182 159.064C414.936 159.332 414.419 159.857 413.529 160.708L427.346 175.167C428.331 174.226 429.22 173.345 429.912 172.592C430.237 172.238 430.691 171.727 431.121 171.144C431.327 170.864 431.69 170.352 432.044 169.684C432.216 169.359 433.25 167.484 433.25 164.875H413.25ZM413.529 160.708C412.569 161.625 410.993 162.761 408.528 163.993L417.472 181.882C421.174 180.031 424.556 177.833 427.346 175.167L413.529 160.708ZM408.577 163.969C407.123 164.686 405.18 165.188 402.5 165.188V185.188C407.737 185.188 412.793 184.189 417.423 181.906L408.577 163.969ZM402.5 165.188C400.272 165.188 399.142 164.636 398.439 164.083L386.061 179.792C390.858 183.572 396.561 185.188 402.5 185.188V165.188ZM398.569 164.187C399.019 164.554 398.053 164.248 397.932 160.493L377.943 161.132C378.156 167.794 380.064 174.904 385.931 179.688L398.569 164.187ZM397.915 160.147C397.899 159.904 397.875 159.038 397.875 157.25H377.875C377.875 158.962 377.893 160.471 377.96 161.478L397.915 160.147ZM450.875 127.75H440.875V131.892L443.804 134.821L450.875 127.75ZM451.438 98.75L461.422 99.3047L462.008 88.75H451.438V98.75ZM451.375 98.75L449.922 108.644L450.645 108.75H451.375V98.75ZM442.438 97.4375L433.003 100.752L435.006 106.453L440.985 107.331L442.438 97.4375ZM441.188 92.3125L431.306 93.8496L431.306 93.8496L441.188 92.3125ZM441.062 82.5L437.694 73.0843L431.945 75.1411L431.148 81.1955L441.062 82.5ZM516.188 85.4375L508.645 92.0037L508.686 92.0509L508.728 92.0977L516.188 85.4375ZM518.625 113.438L509.105 110.377L509.096 110.404L509.088 110.43L518.625 113.438ZM513 127L504.124 122.394L504.115 122.41L504.107 122.427L513 127ZM506.188 137.625L498.554 131.166L498.533 131.19L498.512 131.215L506.188 137.625ZM494.938 144.75L496.503 154.627L496.567 154.617L496.63 154.606L494.938 144.75ZM473.25 146.375V136.375H463.631L463.258 145.987L473.25 146.375ZM473.062 155.625L463.065 155.847L463.297 166.303L473.732 165.603L473.062 155.625ZM482.375 155L490.899 149.772L487.738 144.618L481.705 145.022L482.375 155ZM485.562 166.125H495.562V165.882L495.551 165.64L485.562 166.125ZM482.75 168.812L476.298 161.172L482.75 168.812ZM475.312 173.188L471.343 164.009L471.321 164.019L471.298 164.029L475.312 173.188ZM455.438 172L448.567 179.266L448.635 179.331L448.704 179.393L455.438 172ZM452 160.812H462V160.405L461.967 159.998L452 160.812ZM450.938 127.812H460.938V123.67L458.009 120.741L450.938 127.812ZM490.438 128.812L491.095 138.791L498.469 138.305L500.169 131.113L490.438 128.812ZM493.125 114.25L483.229 112.813L483.224 112.847L483.219 112.881L493.125 114.25ZM494.375 100.75L504.373 100.967L504.431 98.2604L503.117 95.8936L494.375 100.75ZM475.812 99.5625L475.287 89.5763L466.091 90.0603L465.817 99.2646L475.812 99.5625ZM474.312 129.875L464.346 129.058L463.399 140.616L474.97 139.853L474.312 129.875ZM460.875 127.75C460.875 115.223 461.063 105.775 461.422 99.3047L441.453 98.1953C441.062 105.225 440.875 115.11 440.875 127.75H460.875ZM451.438 88.75H451.375V108.75H451.438V88.75ZM452.828 88.8561L443.89 87.5436L440.985 107.331L449.922 108.644L452.828 88.8561ZM451.872 94.1226C451.563 93.2422 451.281 92.1397 451.069 90.7754L431.306 93.8496C431.677 96.2353 432.229 98.5495 433.003 100.752L451.872 94.1226ZM451.069 90.7754C450.85 89.3668 450.75 88.0694 450.75 86.875H430.75C430.75 89.1806 430.942 91.5082 431.306 93.8496L451.069 90.7754ZM450.75 86.875C450.75 86.0531 450.815 85.037 450.977 83.8045L431.148 81.1955C430.893 83.1297 430.75 85.0302 430.75 86.875H450.75ZM444.431 91.9157C448.44 90.4816 454.574 89.2309 463.218 88.3906L461.282 68.4844C451.926 69.3941 443.935 70.8517 437.694 73.0843L444.431 91.9157ZM463.218 88.3906C471.923 87.5442 480.266 87.125 488.25 87.125V67.125C479.568 67.125 470.577 67.5808 461.282 68.4844L463.218 88.3906ZM488.25 87.125C494.145 87.125 498.871 87.5913 502.556 88.3952L506.819 68.8548C501.337 67.6587 495.105 67.125 488.25 67.125V87.125ZM502.556 88.3952C505.036 88.9362 506.973 90.0823 508.645 92.0037L523.73 78.8713C519.236 73.7094 513.506 70.3138 506.819 68.8548L502.556 88.3952ZM508.728 92.0977C509.574 93.0446 510.875 95.4672 510.875 101.188H530.875C530.875 92.9078 529.051 84.8304 523.647 78.7773L508.728 92.0977ZM510.875 101.188C510.875 103.325 510.404 106.336 509.105 110.377L528.145 116.498C529.846 111.206 530.875 106.05 530.875 101.188H510.875ZM509.088 110.43C507.808 114.49 506.156 118.477 504.124 122.394L521.876 131.606C524.427 126.69 526.526 121.635 528.162 116.445L509.088 110.43ZM504.107 122.427C502.081 126.366 500.208 129.21 498.554 131.166L513.821 144.084C516.75 140.623 519.419 136.384 521.893 131.573L504.107 122.427ZM498.512 131.215C496.254 133.919 494.475 134.683 493.245 134.894L496.63 154.606C503.65 153.4 509.371 149.415 513.863 144.035L498.512 131.215ZM493.372 134.873C487.106 135.867 480.403 136.375 473.25 136.375V156.375C481.347 156.375 489.103 155.8 496.503 154.627L493.372 134.873ZM463.258 145.987C463.09 150.291 463.016 153.64 463.065 155.847L483.06 155.403C483.026 153.86 483.076 151.042 483.242 146.763L463.258 145.987ZM473.732 165.603L483.045 164.978L481.705 145.022L472.393 145.647L473.732 165.603ZM473.851 160.228C474.748 161.692 475.433 163.707 475.574 166.61L495.551 165.64C495.275 159.959 493.835 154.558 490.899 149.772L473.851 160.228ZM475.562 166.125C475.562 164.389 476.019 163.081 476.261 162.472C476.535 161.785 476.83 161.274 477.006 160.988C477.353 160.425 477.669 160.049 477.764 159.938C477.981 159.682 478.097 159.584 477.951 159.723C477.707 159.956 477.191 160.418 476.298 161.172L489.202 176.453C490.184 175.623 491.074 174.846 491.768 174.183C492.091 173.875 492.558 173.414 493.01 172.882C493.221 172.633 493.625 172.141 494.031 171.483C494.151 171.288 495.562 169.168 495.562 166.125H475.562ZM476.298 161.172C475.389 161.94 473.835 162.932 471.343 164.009L479.282 182.366C482.957 180.777 486.361 178.852 489.202 176.453L476.298 161.172ZM471.298 164.029C469.741 164.711 467.65 165.188 464.812 165.188V185.188C469.892 185.188 474.801 184.33 479.327 182.346L471.298 164.029ZM464.812 165.188C462.76 165.188 462.247 164.676 462.171 164.607L448.704 179.393C453.295 183.574 459.032 185.188 464.812 185.188V165.188ZM462.308 164.734C462.682 165.087 462.603 165.242 462.418 164.641C462.221 163.999 462 162.792 462 160.812H442C442 167.081 443.279 174.266 448.567 179.266L462.308 164.734ZM461.967 159.998C461.289 151.704 460.938 141.001 460.938 127.812H440.938C440.938 141.291 441.294 152.587 442.033 161.627L461.967 159.998ZM458.009 120.741L457.946 120.679L443.804 134.821L443.866 134.884L458.009 120.741ZM500.169 131.113C501.332 126.194 502.283 121.027 503.031 115.619L483.219 112.881C482.55 117.723 481.71 122.265 480.706 126.512L500.169 131.113ZM503.021 115.687C503.811 110.249 504.278 105.324 504.373 100.967L484.377 100.533C484.305 103.842 483.939 107.917 483.229 112.813L503.021 115.687ZM503.117 95.8936C501.73 93.3972 499.71 92.1783 498.927 91.7418C497.947 91.1954 497.028 90.8695 496.415 90.6773C495.169 90.2862 493.844 90.0391 492.692 89.8638L489.683 109.636C490.448 109.753 490.613 109.818 490.428 109.76C490.347 109.735 489.853 109.581 489.19 109.211C488.843 109.018 488.309 108.688 487.718 108.177C487.136 107.674 486.319 106.841 485.633 105.606L503.117 95.8936ZM492.692 89.8638C490.08 89.4664 487.047 89.3125 483.75 89.3125V109.312C486.537 109.312 488.461 109.45 489.683 109.636L492.692 89.8638ZM483.75 89.3125C481.387 89.3125 478.553 89.4044 475.287 89.5763L476.338 109.549C479.406 109.387 481.863 109.312 483.75 109.312V89.3125ZM465.817 99.2646C465.444 111.77 464.951 121.68 464.346 129.058L484.279 130.692C484.924 122.82 485.431 112.522 485.808 99.8604L465.817 99.2646ZM474.97 139.853L491.095 138.791L489.78 118.834L473.655 119.897L474.97 139.853ZM540.125 104.562L545.322 113.106L545.348 113.09L545.374 113.074L540.125 104.562ZM578.562 104.625L573.066 112.979L573.092 112.996L573.118 113.013L578.562 104.625ZM588.5 117.5L579.035 120.727L579.046 120.759L579.057 120.791L588.5 117.5ZM587.562 157L578.438 152.908L578.431 152.923L578.424 152.939L587.562 157ZM576.188 170.375L581.606 178.78L581.614 178.774L581.623 178.769L576.188 170.375ZM533 164.812L524.908 170.688L524.917 170.7L524.925 170.711L533 164.812ZM564.062 156.438L569.944 164.525L571.669 163.271L572.732 161.422L564.062 156.438ZM566.375 130.375L556.478 131.809L556.48 131.82L556.481 131.83L566.375 130.375ZM564.625 123.625L573.705 119.434L573.136 118.202L572.259 117.166L564.625 123.625ZM561.875 122.438L559.8 132.22L559.943 132.25L560.086 132.276L561.875 122.438ZM553 122.688L547.99 114.033L545.69 115.364L544.355 117.661L553 122.688ZM552.312 155.312L542.68 157.997L543.327 160.322L544.964 162.095L552.312 155.312ZM555.375 156.562L553.516 166.388L553.645 166.413L553.774 166.434L555.375 156.562ZM535.375 137.062C535.375 130.567 536.418 125.445 538.166 121.435L519.834 113.44C516.749 120.514 515.375 128.475 515.375 137.062H535.375ZM538.166 121.435C539.789 117.715 542.143 115.04 545.322 113.106L534.928 96.0191C528.107 100.168 523.045 106.077 519.834 113.44L538.166 121.435ZM545.374 113.074C548.406 111.204 552.731 109.938 558.938 109.938V89.9375C550.06 89.9375 541.844 91.7542 534.876 96.0508L545.374 113.074ZM558.938 109.938C566.177 109.938 570.543 111.319 573.066 112.979L584.059 96.2708C577.082 91.681 568.364 89.9375 558.938 89.9375V109.938ZM573.118 113.013C575.934 114.841 577.863 117.289 579.035 120.727L597.965 114.273C595.387 106.711 590.691 100.576 584.007 96.2372L573.118 113.013ZM579.057 120.791C580.497 124.924 581.375 130.468 581.375 137.688H601.375C601.375 128.99 600.336 121.076 597.943 114.209L579.057 120.791ZM581.375 137.688C581.375 143.71 580.317 148.719 578.438 152.908L596.687 161.092C599.891 153.948 601.375 146.082 601.375 137.688H581.375ZM578.424 152.939C576.699 156.822 574.179 159.762 570.752 161.981L581.623 178.769C588.363 174.405 593.426 168.428 596.701 161.061L578.424 152.939ZM570.769 161.97C567.67 163.968 563.467 165.25 557.625 165.25V185.25C566.45 185.25 574.622 183.282 581.606 178.78L570.769 161.97ZM557.625 165.25C548.382 165.25 543.708 162.518 541.075 158.914L524.925 170.711C532.458 181.023 544.201 185.25 557.625 185.25V165.25ZM541.092 158.937C537.6 154.128 535.375 147.14 535.375 137.062H515.375C515.375 149.985 518.234 161.497 524.908 170.688L541.092 158.937ZM560.188 166.938C561.447 166.938 562.78 166.892 564.03 166.73C564.704 166.643 567.463 166.329 569.944 164.525L558.181 148.35C558.845 147.867 559.441 147.569 559.843 147.393C560.256 147.213 560.596 147.104 560.815 147.041C561.041 146.977 561.211 146.94 561.307 146.922C561.405 146.903 561.463 146.896 561.47 146.895C561.477 146.894 561.377 146.906 561.138 146.918C560.906 146.929 560.593 146.938 560.188 146.938V166.938ZM572.732 161.422C574.539 158.279 575.526 154.596 576.118 150.997L556.382 147.753C555.974 150.238 555.503 151.262 555.393 151.453L572.732 161.422ZM576.118 150.997C576.718 147.347 577 143.507 577 139.5H557C557 142.577 556.782 145.32 556.382 147.753L576.118 150.997ZM577 139.5C577 135.827 576.765 132.294 576.269 128.92L556.481 131.83C556.819 134.122 557 136.673 557 139.5H577ZM576.272 128.941C575.791 125.627 575.03 122.306 573.705 119.434L555.545 127.816C555.72 128.194 556.125 129.373 556.478 131.809L576.272 128.941ZM572.259 117.166C569.412 113.801 565.436 112.921 563.664 112.599L560.086 132.276C560.298 132.315 560.084 132.299 559.629 132.102C559.212 131.922 558.08 131.371 556.991 130.084L572.259 117.166ZM563.95 112.655C561.797 112.198 559.592 112 557.375 112V132C558.408 132 559.203 132.093 559.8 132.22L563.95 112.655ZM557.375 112C555.998 112 554.547 112.071 553.135 112.293C551.843 112.496 549.906 112.924 547.99 114.033L558.01 131.342C557.393 131.699 556.893 131.873 556.641 131.95C556.503 131.992 556.4 132.017 556.337 132.031C556.274 132.045 556.24 132.051 556.24 132.051C556.239 132.051 556.264 132.047 556.317 132.041C556.37 132.036 556.445 132.029 556.544 132.023C556.746 132.01 557.019 132 557.375 132V112ZM544.355 117.661C541.03 123.38 539.875 130.356 539.875 137.625H559.875C559.875 132.144 560.803 129.162 561.645 127.714L544.355 117.661ZM539.875 137.625C539.875 141.135 540.143 144.683 540.668 148.264L560.457 145.361C560.065 142.692 559.875 140.115 559.875 137.625H539.875ZM540.668 148.264C541.176 151.727 541.839 154.981 542.68 157.997L561.945 152.628C561.369 150.561 560.865 148.148 560.457 145.361L540.668 148.264ZM544.964 162.095C547.845 165.216 551.792 166.062 553.516 166.388L557.234 146.737C556.869 146.668 556.924 146.647 557.232 146.773C557.4 146.841 557.717 146.984 558.116 147.235C558.513 147.485 559.076 147.897 559.661 148.53L544.964 162.095ZM553.774 166.434C555.879 166.775 558.02 166.938 560.188 166.938V146.938C559.021 146.938 557.954 146.85 556.976 146.691L553.774 166.434ZM605.75 151.938L609.446 142.645L602.476 139.873L597.864 145.789L605.75 151.938ZM621.812 157.375L619.643 167.137L619.659 167.14L619.676 167.144L621.812 157.375ZM632.25 157.938L636.096 167.168L638.614 166.119L640.25 163.937L632.25 157.938ZM632.562 157.188L623.076 154.025L622.954 154.39L622.861 154.762L632.562 157.188ZM631.312 154L636.233 145.294L636.201 145.276L636.169 145.258L631.312 154ZM623.312 150.062L619.013 159.091L619.046 159.107L619.078 159.122L623.312 150.062ZM610.812 143.375L605.399 151.783L605.425 151.8L605.451 151.816L610.812 143.375ZM603.062 135.562L594.644 140.959L594.668 140.997L594.693 141.035L603.062 135.562ZM606.25 106.375L613.356 113.411L613.373 113.394L613.39 113.376L606.25 106.375ZM651.625 104.188L661.346 101.841L660.219 97.1727L655.871 95.1337L651.625 104.188ZM650.438 119.5L660.019 122.363L660.023 122.348L660.028 122.333L650.438 119.5ZM646.188 127.562L643.025 137.049L648.888 139.004L653.259 134.634L646.188 127.562ZM636.125 123.75L639.87 114.478L639.833 114.463L639.797 114.448L636.125 123.75ZM628.562 120.875L624.959 130.203L625.085 130.252L625.212 130.297L628.562 120.875ZM623.5 119.375L625.359 109.549L623.203 109.141L621.075 109.674L623.5 119.375ZM621.5 120.875L629.821 126.422L629.889 126.319L629.955 126.215L621.5 120.875ZM623.375 127.375L618.472 136.091L618.789 136.269L619.117 136.423L623.375 127.375ZM626.375 128.75L622.259 137.864L622.313 137.888L622.367 137.912L626.375 128.75ZM628.25 129.562L624.311 138.754L624.595 138.876L624.887 138.98L628.25 129.562ZM629.875 130.188L633.771 120.978L633.746 120.967L633.721 120.957L629.875 130.188ZM643 136.688L637.318 144.916L637.324 144.921L637.33 144.925L643 136.688ZM650.562 144.25L642.167 149.683L650.562 144.25ZM649.312 165.688L641.429 159.535L641.424 159.541L641.419 159.548L649.312 165.688ZM639.188 173.062L642.619 182.455L642.654 182.443L642.688 182.43L639.188 173.062ZM632.062 174.75L630.783 164.832L630.693 164.844L630.603 164.857L632.062 174.75ZM610.625 173L607.134 182.371L607.189 182.391L607.244 182.411L610.625 173ZM600.875 165.125L590.876 164.961L590.829 167.873L592.352 170.355L600.875 165.125ZM601.875 158.5L592.43 155.215L592.409 155.276L592.388 155.338L601.875 158.5ZM602.054 161.23C605.766 162.706 608.824 163.878 611.188 164.726L617.937 145.899C615.884 145.163 613.067 144.086 609.446 142.645L602.054 161.23ZM611.188 164.726C613.842 165.677 616.667 166.476 619.643 167.137L623.982 147.613C621.708 147.108 619.699 146.531 617.937 145.899L611.188 164.726ZM619.676 167.144C623.016 167.875 626.378 168.25 629.75 168.25V148.25C627.872 148.25 625.942 148.042 623.949 147.606L619.676 167.144ZM629.75 168.25C631.063 168.25 633.629 168.196 636.096 167.168L628.404 148.707C628.897 148.501 629.295 148.393 629.531 148.338C629.774 148.281 629.943 148.257 630.01 148.249C630.128 148.234 630.065 148.25 629.75 148.25V168.25ZM640.25 163.937C641.529 162.233 642.04 160.507 642.264 159.613L622.861 154.762C622.91 154.566 623.008 154.218 623.191 153.779C623.369 153.353 623.692 152.682 624.25 151.938L640.25 163.937ZM642.049 160.35C642.496 159.011 642.75 157.569 642.75 156.062H622.75C622.75 155.306 622.879 154.614 623.076 154.025L642.049 160.35ZM642.75 156.062C642.75 150.468 639.175 146.957 636.233 145.294L626.392 162.706C625.959 162.461 625.029 161.848 624.187 160.64C623.264 159.316 622.75 157.703 622.75 156.062H642.75ZM636.169 145.258C634.329 144.236 631.375 142.792 627.547 141.003L619.078 159.122C622.917 160.916 625.296 162.097 626.456 162.742L636.169 145.258ZM627.612 141.034C622.541 138.619 618.777 136.587 616.174 134.934L605.451 151.816C609.015 154.08 613.584 156.506 619.013 159.091L627.612 141.034ZM616.226 134.967C614.45 133.823 612.846 132.252 611.432 130.09L594.693 141.035C597.529 145.373 601.092 149.01 605.399 151.783L616.226 134.967ZM611.481 130.166C610.679 128.914 609.938 126.835 609.938 123.312H589.938C589.938 129.623 591.28 135.711 594.644 140.959L611.481 130.166ZM609.938 123.312C609.938 118.404 611.327 115.46 613.356 113.411L599.144 99.3389C592.756 105.79 589.938 114.138 589.938 123.312H609.938ZM613.39 113.376C614.936 111.8 618.438 109.938 626.25 109.938V89.9375C615.812 89.9375 605.981 92.3663 599.11 99.3736L613.39 113.376ZM626.25 109.938C636.472 109.938 643.246 111.303 647.379 113.241L655.871 95.1337C647.92 91.4051 637.778 89.9375 626.25 89.9375V109.938ZM641.904 106.534C641.945 106.705 642.062 107.371 642.062 108.75H662.062C662.062 106.462 661.888 104.087 661.346 101.841L641.904 106.534ZM642.062 108.75C642.062 111.207 641.684 113.835 640.847 116.667L660.028 122.333C661.358 117.831 662.062 113.293 662.062 108.75H642.062ZM640.856 116.637C640.018 119.44 639.234 120.374 639.116 120.491L653.259 134.634C656.641 131.251 658.69 126.81 660.019 122.363L640.856 116.637ZM649.35 118.076C647.272 117.383 644.145 116.204 639.87 114.478L632.38 133.022C636.772 134.796 640.353 136.159 643.025 137.049L649.35 118.076ZM639.797 114.448C636.587 113.181 633.945 112.175 631.913 111.453L625.212 130.297C626.93 130.908 629.33 131.819 632.453 133.052L639.797 114.448ZM632.166 111.547C629.903 110.672 627.623 109.978 625.359 109.549L621.641 129.201C622.46 129.356 623.556 129.661 624.959 130.203L632.166 111.547ZM621.075 109.674C617.51 110.565 614.784 112.782 613.045 115.535L629.955 126.215C629.635 126.721 629.128 127.342 628.375 127.906C627.609 128.481 626.761 128.868 625.925 129.076L621.075 109.674ZM613.179 115.328C611.422 117.965 610.75 120.862 610.75 123.562H630.75C630.75 124.18 630.578 125.285 629.821 126.422L613.179 115.328ZM610.75 123.562C610.75 126.605 611.714 129.78 614.006 132.424L629.119 119.326C629.662 119.952 630.101 120.697 630.388 121.513C630.669 122.314 630.75 123.028 630.75 123.562H610.75ZM614.006 132.424C615.239 133.848 616.724 135.108 618.472 136.091L628.278 118.659C628.692 118.892 628.969 119.152 629.119 119.326L614.006 132.424ZM619.117 136.423C619.896 136.79 620.951 137.273 622.259 137.864L630.491 119.636C629.215 119.06 628.271 118.627 627.633 118.327L619.117 136.423ZM622.367 137.912C623.053 138.212 623.701 138.493 624.311 138.754L632.189 120.371C631.632 120.132 631.03 119.871 630.383 119.588L622.367 137.912ZM624.887 138.98C625.33 139.138 625.709 139.285 626.029 139.418L633.721 120.957C633.041 120.673 632.337 120.403 631.613 120.145L624.887 138.98ZM625.979 139.397C629.183 140.753 631.618 141.824 633.334 142.624L641.791 124.501C639.757 123.551 637.067 122.372 633.771 120.978L625.979 139.397ZM633.334 142.624C634.688 143.256 636.016 144.017 637.318 144.916L648.682 128.459C646.484 126.941 644.187 125.619 641.791 124.501L633.334 142.624ZM637.33 144.925C639.62 146.501 641.15 148.111 642.167 149.683L658.958 138.817C656.308 134.722 652.797 131.291 648.67 128.45L637.33 144.925ZM642.167 149.683C642.953 150.897 643.312 152.115 643.312 153.562H663.312C663.312 148.26 661.839 143.269 658.958 138.817L642.167 149.683ZM643.312 153.562C643.312 156.182 642.616 158.014 641.429 159.535L657.196 171.84C661.342 166.527 663.312 160.276 663.312 153.562H643.312ZM641.419 159.548C639.966 161.416 638.131 162.782 635.687 163.695L642.688 182.43C648.494 180.26 653.409 176.709 657.206 171.827L641.419 159.548ZM635.756 163.67C634.367 164.177 632.724 164.582 630.783 164.832L633.342 184.668C636.567 184.252 639.674 183.531 642.619 182.455L635.756 163.67ZM630.603 164.857C628.672 165.142 626.202 165.312 623.125 165.312V185.312C626.881 185.312 630.37 185.108 633.522 184.643L630.603 164.857ZM623.125 165.312C620.374 165.312 617.351 164.79 614.006 163.589L607.244 182.411C612.483 184.293 617.793 185.312 623.125 185.312V165.312ZM614.116 163.629C611.837 162.78 610.414 161.55 609.398 159.895L592.352 170.355C595.836 176.033 600.913 180.053 607.134 182.371L614.116 163.629ZM610.874 165.289C610.903 163.491 611.136 162.339 611.362 161.662L592.388 155.338C591.364 158.411 590.93 161.676 590.876 164.961L610.874 165.289ZM611.32 161.785C611.489 161.3 612.072 160.093 613.636 158.086L597.864 145.789C595.595 148.699 593.595 151.866 592.43 155.215L611.32 161.785ZM665.688 120.938L675.681 121.31L676.006 112.585L667.405 111.086L665.688 120.938ZM658.875 119.75L649.197 122.266L650.817 128.496L657.158 129.601L658.875 119.75ZM657.438 109.188L647.487 108.192L647.438 108.689V109.188H657.438ZM657.562 107.938L647.784 105.842L647.668 106.388L647.612 106.942L657.562 107.938ZM657.75 106.5L655.595 96.735L647.75 98.4663V106.5H657.75ZM666.812 104.5L668.968 114.265L676.186 112.672L676.78 105.304L666.812 104.5ZM670.625 88.5625L664.625 80.5625L662.871 81.8782L661.828 83.8073L670.625 88.5625ZM686.812 86.125L684.668 95.8924L684.805 95.9223L684.941 95.9484L686.812 86.125ZM691.375 87.5L701.336 86.6211L700.822 80.794L695.491 78.3863L691.375 87.5ZM691.125 102.562L681.154 101.796L680.16 114.72L692.914 112.401L691.125 102.562ZM702.125 100.562L710.782 95.5575L707.26 89.4649L700.336 90.7238L702.125 100.562ZM703.625 115.125L694.072 112.168L694.04 112.273L694.01 112.378L703.625 115.125ZM701.5 121.062L703.144 130.926L708.611 130.015L710.736 124.896L701.5 121.062ZM690.188 121.938L689.927 111.941L680.989 112.174L680.224 121.082L690.188 121.938ZM686.312 151.875L676.426 150.373L676.422 150.397L676.419 150.42L686.312 151.875ZM686 154L676.106 152.545L675.375 157.517L678.929 161.071L686 154ZM686.125 154.125L679.054 161.196L683.324 165.466L689.092 163.675L686.125 154.125ZM700.812 149.562L707.225 141.889L703.046 138.397L697.846 140.013L700.812 149.562ZM706.375 161.312H716.375V160.685L716.297 160.063L706.375 161.312ZM702.312 165.438L709.028 172.847L709.034 172.842L702.312 165.438ZM692.25 172.188L696.759 181.113L696.795 181.095L696.832 181.076L692.25 172.188ZM665.812 160.062L675.798 159.528L675.797 159.511L675.796 159.494L665.812 160.062ZM675.375 139.5C675.375 132.807 675.478 126.746 675.681 121.31L655.694 120.565C655.481 126.295 655.375 132.609 655.375 139.5H675.375ZM667.405 111.086L660.592 109.899L657.158 129.601L663.97 130.789L667.405 111.086ZM668.553 117.234C668.082 115.422 667.804 114.008 667.665 112.945L647.835 115.555C648.112 117.659 648.585 119.912 649.197 122.266L668.553 117.234ZM667.665 112.945C667.519 111.843 667.438 110.595 667.438 109.188H647.438C647.438 111.364 647.564 113.49 647.835 115.555L667.665 112.945ZM667.388 110.183L667.513 108.933L647.612 106.942L647.487 108.192L667.388 110.183ZM667.341 110.033C667.538 109.114 667.75 107.866 667.75 106.5H647.75C647.75 106.152 647.777 105.921 647.787 105.847C647.798 105.764 647.803 105.757 647.784 105.842L667.341 110.033ZM659.905 116.265L668.968 114.265L664.657 94.735L655.595 96.735L659.905 116.265ZM676.78 105.304C676.94 103.322 677.324 100.9 677.994 97.9986L658.506 93.5014C657.676 97.0996 657.102 100.512 656.845 103.696L676.78 105.304ZM677.994 97.9986C678.689 94.9862 679.242 93.65 679.422 93.3177L661.828 83.8073C660.341 86.5583 659.311 90.0138 658.506 93.5014L677.994 97.9986ZM676.625 96.5625C676.78 96.446 677.176 96.1984 678.014 95.9748L672.861 76.6502C669.949 77.4266 667.136 78.679 664.625 80.5625L676.625 96.5625ZM678.014 95.9748C678.957 95.7233 680.104 95.5625 681.5 95.5625V75.5625C678.563 75.5625 675.668 75.9017 672.861 76.6502L678.014 95.9748ZM681.5 95.5625C682.647 95.5625 683.697 95.6793 684.668 95.8924L688.957 76.3576C686.511 75.8207 684.02 75.5625 681.5 75.5625V95.5625ZM684.941 95.9484C686.106 96.1702 686.841 96.4248 687.259 96.6137L695.491 78.3863C693.326 77.4085 691.019 76.7465 688.684 76.3016L684.941 95.9484ZM681.414 88.3789C681.507 89.4341 681.562 90.7562 681.562 92.375H701.562C701.562 90.3272 701.493 88.3993 701.336 86.6211L681.414 88.3789ZM681.562 92.375C681.562 95.0622 681.431 98.1952 681.154 101.796L701.096 103.329C701.402 99.3465 701.562 95.6878 701.562 92.375H681.562ZM692.914 112.401L703.914 110.401L700.336 90.7238L689.336 92.7238L692.914 112.401ZM693.468 105.568C694.116 106.69 694.438 107.856 694.438 109.25H714.438C714.438 104.394 713.217 99.7686 710.782 95.5575L693.468 105.568ZM694.438 109.25C694.438 110.592 694.269 111.532 694.072 112.168L713.178 118.082C714.064 115.218 714.438 112.241 714.438 109.25H694.438ZM694.01 112.378C693.642 113.665 693.076 115.272 692.264 117.229L710.736 124.896C711.757 122.436 712.608 120.085 713.24 117.872L694.01 112.378ZM699.856 111.199C697.774 111.546 694.533 111.821 689.927 111.941L690.448 131.934C695.425 131.804 699.726 131.496 703.144 130.926L699.856 111.199ZM680.224 121.082C679.669 127.54 678.418 137.26 676.426 150.373L696.199 153.377C698.207 140.157 699.539 129.918 700.151 122.793L680.224 121.082ZM676.419 150.42L676.106 152.545L695.894 155.455L696.206 153.33L676.419 150.42ZM678.929 161.071L679.054 161.196L693.196 147.054L693.071 146.929L678.929 161.071ZM689.092 163.675L703.779 159.112L697.846 140.013L683.158 144.575L689.092 163.675ZM694.4 157.236C694.913 157.665 695.991 158.896 696.453 162.562L716.297 160.063C715.425 153.146 712.795 146.544 707.225 141.889L694.4 157.236ZM696.375 161.312C696.375 160.378 696.507 159.602 696.637 159.051C696.769 158.49 696.93 158.03 697.063 157.695C697.32 157.047 697.591 156.569 697.744 156.316C698.046 155.814 698.309 155.491 698.36 155.428C698.49 155.269 698.495 155.281 698.235 155.546C697.757 156.031 696.906 156.84 695.591 158.033L709.034 172.842C710.427 171.577 711.608 170.469 712.484 169.579C712.9 169.157 713.414 168.617 713.882 168.04C714.102 167.77 714.493 167.272 714.879 166.629C714.955 166.504 716.375 164.354 716.375 161.312H696.375ZM695.597 158.028C693.717 159.731 691.13 161.514 687.668 163.299L696.832 181.076C701.453 178.694 705.574 175.977 709.028 172.847L695.597 158.028ZM687.741 163.262C685.166 164.562 682.325 165.25 679.062 165.25V185.25C685.3 185.25 691.25 183.896 696.759 181.113L687.741 163.262ZM679.062 165.25C677.995 165.25 677.461 165.086 677.271 165.011C677.131 164.955 677.107 164.925 677.067 164.879C676.908 164.697 676.008 163.443 675.798 159.528L655.827 160.597C656.159 166.807 657.738 173.146 661.996 178.027C666.538 183.233 672.762 185.25 679.062 185.25V165.25ZM675.796 159.494C675.52 154.642 675.375 148.001 675.375 139.5H655.375C655.375 148.165 655.521 155.233 655.829 160.631L675.796 159.494Z" fill="#3C59D3"/>
</g>
<defs>
<filter id="filter0_d_81_8681" x="0.0625" y="0.125" width="787.312" height="285.875" filterUnits="userSpaceOnUse" color-interpolation-filters="sRGB">
<feFlood flood-opacity="0" result="BackgroundImageFix"/>
<feColorMatrix in="SourceAlpha" type="matrix" values="0 0 0 0 0 0 0 0 0 0 0 0 0 0 0 0 0 0 127 0" result="hardAlpha"/>
<feOffset dy="4"/>
<feGaussianBlur stdDeviation="40.5"/>
<feComposite in2="hardAlpha" operator="out"/>
<feColorMatrix type="matrix" values="0 0 0 0 0.0529729 0 0 0 0 0.144359 0 0 0 0 0.451749 0 0 0 0.25 0"/>
<feBlend mode="normal" in2="BackgroundImageFix" result="effect1_dropShadow_81_8681"/>
<feBlend mode="normal" in="SourceGraphic" in2="effect1_dropShadow_81_8681" result="shape"/>
</filter>
</defs>
</svg>
